<svg xmlns="http://www.w3.org/2000/svg" version="1.1" width="600px" height="600px" viewBox="0 0 200 200" style="overflow:hidden!important;"><g id="svga-group-wrapper"><g id="svga-group-backs-single"></g><g id="svga-group-humanwrap-move" transform="matrix(1,0,0,1,0,0)"><g id="svga-group-humanwrap"><g id="svga-group-hair-back-move" transform="matrix(1,0,0,1,0,0)"><g id="svga-group-hair-back"><path id="SvgjsPath10880" d="m59.8 88.3 9.1 69.3 10.3 1.6 1.8-3.1 1.9 2.9 36-1.4 1-12.2.9 12.2 19-.9 1.6-71.5z" fill="#221b23" stroke-width="none" opacity="1" stroke="none"></path></g></g><g id="svga-group-humanbody-back"><path id="SvgjsPath10729" d="M77.8 105.9s4.8 37.7 10 55.8c0 0-6.4 8.8-14.5 11.9-28.7 11.2-35 11.2-39.6 15.2-2.4 2.1.2 11.1 1.8 17.2 1.3 5 1.7 13.2 1.7 13.2h132.2s1.6-33-.6-39.8-7.1-2.9-21.9-4.5c-14.8-1.6-28.7-10.3-31-13.2l.3-60-38.4 4.2z" fill="#f3d4cf" stroke-width="none" opacity="1"></path></g><g id="svga-group-chinshadow-single"><path id="SvgjsPath10725" d="M85.6 152.8c6.6 3.5 10.7 3.5 10.7 3.5s8 0 19.6-9.5l.2-45.2-38.4 4.2c.1.1 3.6 27.7 7.9 47z" fill="#d4958a" stroke-width="none" opacity="1"></path></g><g id="svga-group-humanbody-front"><path id="SvgjsPath10730" d="M72.1 183.1s14.6-.2 20.4 2.6c5.8 2.9 12.7 2.4 16.1-1s21.6-7 21.6-7-19.7 1.9-25 4.6c-5.3 2.7-22.3-2.8-33.1.8z" fill="#d4958a" stroke-width="none" opacity="1"></path><path id="SvgjsPath10731" d="M74.2 173.2c6.7-1.3 14.7-6.4 14.7-6.4l6.2 5.5c-4.3-7.9-12.7-41.1-12.7-41.1l-.7.7c1.7 10.5 3.9 21.9 6.1 29.7 0 0-6 8.2-13.6 11.6z" fill="#d4958a" stroke-width="none" opacity="1"></path><path id="SvgjsPath10732" d="M170.7 188.5c-.1-2.1-.2-4.1-.4-6.2-.1-1-.3-2.1-.6-3.2-.2-.5-.4-1-.6-1.6-.2-.5-.6-1-1-1.5s-.9-.9-1.5-1.1c-.6-.3-1.1-.4-1.7-.6-1.1-.2-2.2-.2-3.2-.2-2.1 0-4.1.1-6.1.1s-4-.1-6-.2-4-.4-6-.7c-1-.2-2-.4-2.9-.6l-1.5-.4c-.5-.1-1-.3-1.4-.4-3.8-1.1-7.6-2.6-11.2-4.4l-1.3-.7-1.3-.7c-.4-.2-.9-.5-1.3-.8s-.9-.5-1.3-.8-.8-.5-1.3-.8l-1.2-.9-.6-.5-.3-.2-.3-.2c-.2-.2-.4-.3-.5-.5l-.2-.3v-44.6l-.1-15v-.6l-.6.1c-6.4.8-12.9 1.5-19.3 2.3l-19.1 2.3v.5l.1.4.1.9.2 1.8c.1 1.2.3 2.3.4 3.5l.9 7c.6 4.7 1.3 9.4 2.1 14 .8 4.7 1.5 9.3 2.5 14 .9 4.5 1.8 9 3 13.5-1.1 1.4-2.3 2.7-3.6 4-1.3 1.3-2.8 2.6-4.3 3.8-1.5 1.1-3.1 2.2-4.8 3l-1.3.6c-.4.2-.9.3-1.3.5l-2.7 1c-7.2 2.7-14.5 5.3-21.8 7.7l-5.5 1.8c-1.8.6-3.7 1.3-5.5 2.2-.4.2-.9.5-1.3.7-.4.3-.9.5-1.3.9l-.6.5c-.2.2-.5.5-.6.8-.3.5-.4 1.1-.5 1.6-.2 1.1-.1 2.1 0 3.1s.3 2 .4 2.9c.4 1.9.8 3.8 1.3 5.7l.8 2.8c.3.9.5 1.8.7 2.8.4 1.9.7 3.8.9 5.7s.4 3.8.5 5.7v.8h133.4v-.8c.2-4.1.4-8.2.5-12.3s.2-8.2.2-12.3c0-1.8-.1-3.8-.1-5.9zm-67.4 30.3H70.2l-16.5-.1-16-.1c-.1-1.8-.2-3.5-.4-5.3-.2-1.9-.4-3.9-.8-5.8-.2-1-.4-1.9-.7-2.9l-.7-2.8c-.5-1.9-.9-3.7-1.2-5.6-.2-.9-.3-1.9-.4-2.8-.1-.9-.1-1.9 0-2.7.1-.4.2-.8.4-1.1.1-.2.2-.3.3-.4l.5-.4c.3-.3.7-.5 1.1-.8.4-.2.8-.5 1.2-.7 1.7-.8 3.5-1.4 5.3-2l5.5-1.8c7.3-2.4 14.6-5 21.8-7.8l2.7-1c.5-.2.9-.3 1.4-.5l1.4-.6c1.8-.9 3.4-2 5-3.2s3-2.5 4.4-3.9 2.7-2.9 3.8-4.5l.2-.3-.1-.3c-1.3-4.5-2.3-9.1-3.3-13.7s-1.9-9.3-2.7-13.9c-.8-4.6-1.6-9.3-2.4-14l-2.2-13.9 19.3-1.8c6.2-.6 12.3-1.2 18.5-1.8l-.2 14.4-.2 15-.3 30v.4l.2.2.6.7.6.6.3.3.3.2.6.5c.4.3.9.6 1.3.9.4.3.9.6 1.3.9.4.3.9.5 1.3.8s.9.5 1.3.8l1.4.8 1.4.7c.5.2.9.5 1.4.7l1.4.7c1 .4 1.9.8 2.9 1.2s1.9.8 2.9 1.1l1.5.5c.5.2 1 .3 1.5.4.5.1 1 .3 1.5.4l1.5.4c1 .3 2 .4 3 .6 2 .4 4.1.6 6.2.8 2.1.2 4.1.2 6.2.2 2.1 0 4.1-.1 6.1-.1s4 .1 5 1.3c.5.6.9 1.4 1.2 2.3.3.9.4 1.9.6 2.8.3 2 .4 4 .5 6s.1 4.1.2 6.1c.1 7.9-.1 15.8-.4 23.7-10.8.1-21.5.1-32.3.2h-33.1z" fill="#c5796d" stroke-width="none" opacity="1"></path><path id="SvgjsPath10733" d="M150.7 219.2 147 198l-.4 21.2z" fill="#d4958a" stroke-width="none" opacity="1"></path><path id="SvgjsPath10734" d="M47.3 203.5s2.2 11.5 2.9 15.7h3.5l-6.4-15.7z" fill="#d4958a" stroke-width="none" opacity="1"></path></g><g id="svga-group-clothes-single"><path id="SvgjsPath10861" d="M83.26 143.21c-2.27.45-5.11 2.64-5.11 5.13 0 2.5.91 3.18.91 4.99s-2.72 2.27-1.59 5.67c1.13 3.4-.91 4.08-1.81 6.12-.91 2.04.68 3.86.68 3.86s-8.62 4.08-13.38 5.22-19.28 7.26-22.91 7.49-10.21 5.22-10.89 6.81-.68 8.39.45 10.66c1.13 2.27 1.13 9.53 1.59 11.34.45 1.81.8 8.7.8 8.7h139.62s.45-17.09 1.36-20.49c.91-3.4-.23-18.6-1.13-21.78-.91-3.18-8.62-7.03-11.34-6.58-2.72.45-29.57-2.97-36.38-6.37 0 0 .08-5.42-3.09-7.24 0 0 2.04-4.08.45-6.12s-.91-4.54-1.59-5.22c-.68-.68-2.95-2.04-2.95-2.04s-.64 2.75-4.72 4.11-23.42 1.09-26.14-.27-2.83-3.99-2.83-3.99z" fill="#a44974" stroke-width="none" opacity="1" stroke="none"></path><path id="SvgjsPath10862" d="M173.89 184.26c-.18-1.95-.37-3.89-.69-5.86-.09-.5-.17-.99-.31-1.52-.04-.24-.2-.58-.31-.87-.13-.3-.3-.52-.46-.78-.68-.94-1.48-1.62-2.3-2.26-1.66-1.24-3.45-2.18-5.37-2.91-.97-.35-1.96-.65-3.12-.74-.27-.04-.62 0-.94.02l-.6.03c-.42 0-.92-.02-1.37-.04-3.81-.26-7.67-.74-11.49-1.27-3.83-.55-7.65-1.14-11.44-1.87-3.6-.72-7.29-1.47-10.55-2.8-.03-.54-.09-1.06-.17-1.59-.13-.72-.29-1.43-.55-2.13-.26-.7-.59-1.39-1.04-2.02-.33-.44-.74-.83-1.18-1.17.44-1.08.76-2.18.84-3.41.03-.72-.03-1.51-.38-2.26-.07-.19-.21-.36-.32-.54l-.26-.37a4.63 4.63 0 0 1-.39-.73c-.22-.52-.34-1.09-.42-1.69l-.11-.96c-.05-.34-.07-.69-.27-1.16-.32-.6-.63-.7-.89-.94a33.141 33.141 0 0 0-2.51-1.61l-.73-.43-.24.84c-.16.54-.56 1.22-1.04 1.72-.49.52-1.07.96-1.72 1.32-1.29.76-2.75 1.02-4.31 1.2-3.1.37-6.26.43-9.4.49-3.15.03-6.3 0-9.44-.23-.78-.06-1.56-.14-2.34-.24-.78-.12-1.54-.23-2.2-.6a4.74 4.74 0 0 1-1.69-1.52c-.21-.32-.4-.66-.53-1.02a3.5 3.5 0 0 1-.17-.55l-.06-.28-.02-.14-.01-.07c-.01-.01.02-.04-.04-.14-.17.01-.38.04-.55.08l-.46.14c-.3.11-.59.23-.88.37-.57.28-1.1.63-1.59 1.05-.96.81-1.8 1.93-1.94 3.28-.05.66-.01 1.29.1 1.93.11.64.32 1.25.49 1.83.16.57.25 1.19.19 1.71-.07.49-.46.93-.86 1.42-.4.48-.81 1.09-.97 1.78-.17.7-.08 1.41.08 2.05.38 1.22.57 2.33.07 3.31-.47.97-1.54 1.85-2.01 3.23-.22.69-.23 1.46-.05 2.14.12.46.29.87.52 1.27-2.92 1.31-5.9 2.55-8.9 3.62-.8.28-1.61.55-2.42.78-.8.24-1.61.41-2.49.65-1.69.48-3.32 1.06-4.95 1.63-3.26 1.15-6.48 2.35-9.73 3.46-1.62.56-3.25 1.09-4.87 1.53-.41.12-.81.2-1.2.29-.43.1-.69.1-1.2.18-1 .11-1.88.42-2.71.77-1.68.71-3.19 1.63-4.64 2.65-.72.52-1.43 1.05-2.11 1.64-.34.3-.67.6-1 .94-.32.34-.66.7-.95 1.3-.37 1.09-.39 1.92-.46 2.83-.05.89-.05 1.78-.03 2.66.03.88.09 1.77.21 2.66.12.89.26 1.78.6 2.72.23.57.34.74.45 1.15.11.36.2.76.27 1.17.15.81.26 1.65.35 2.49.18 1.69.28 3.4.45 5.14.05.44.09.88.18 1.35l.14.64.1.6c.12.82.22 1.67.3 2.52.16 1.7.29 3.42.4 5.12l.04.69.68-.01c11.64-.11 23.27-.31 34.91-.35l17.45-.06 17.45.06 34.91.33 34.91.24.9.01.03-.91c.13-3.87.29-7.75.53-11.61.12-1.93.25-3.86.45-5.76.11-.93.21-1.93.4-2.74.25-1.04.33-2.11.37-3.09.11-3.99-.1-7.88-.42-11.78zm-54.94-38.75c.23.17.51.43.46.43.13.31.15 1.06.22 1.71.08.68.21 1.39.48 2.08.14.34.31.68.51.99.09.14.24.34.29.43.05.1.13.18.17.3.19.43.25.97.21 1.54-.08 1.13-.49 2.35-.99 3.41l-.31.66.63.4c.47.3.88.69 1.23 1.16.34.48.59 1.04.8 1.63.21.59.34 1.21.45 1.85.1.62.16 1.3.15 1.89v.55l.48.23c.09.05.19.08.28.12-3.8 1.26-7.54 2.65-11.26 4.07.15-.55.29-1.1.43-1.65.11-.5.21-.99.29-1.5.09-.53.08-1.07.04-1.59-.09-1.06-.4-2.08-.79-3.04-.17-.41-.38-.81-.59-1.2.03-.02.07-.03.1-.05-.04.01-.07.01-.11.02l-.09-.18c-.26-.47-.56-.89-.54-1.13-.05-.2.26-.57.59-1 .32-.42.61-.91.8-1.42.19-.51.36-1.05.33-1.65-.01-.61-.31-1.21-.68-1.61-.45-.51-.96-.93-1.4-1.36.83-.59 1.6-1.24 2.28-1.98.36-.39.71-.79 1.05-1.2-.01.08-.02.16-.04.25-.01.07-.02.12-.01.23 0 .04.03.13.09.19.03.03.08.06.12.08l.02.01c.07.04.16.11.24.19.66.58 1.1 1.4 1.15 2.22.01.39-.03.92-.06 1.34-.04.45-.13.84-.28 1.27-.15.41-.31.91-.47 1.28-.16.38-.41.73-.68 1.14-.26.39-.58.93-.57 1.57 0 .63.26 1.14.52 1.57.26.41.54.81.8 1.18.28.41.4.62.35 1.03-.04.43-.19.84-.28 1.36-.08.51-.03 1.04.11 1.52.28.95.9 1.71.77 2.68.18-.44.14-.97.02-1.43-.11-.47-.25-.92-.31-1.36-.07-.44-.06-.87.05-1.28.11-.39.31-.87.4-1.38.05-.26.07-.58-.02-.88-.09-.3-.24-.52-.36-.73-.26-.41-.5-.79-.73-1.2-.21-.37-.37-.75-.36-1.08 0-.32.17-.65.43-1.03.25-.38.54-.81.74-1.3.19-.5.33-.9.47-1.38.14-.47.24-1 .26-1.5.01-.51.02-.93-.04-1.48-.15-1.07-.8-1.97-1.63-2.53-.11-.07-.21-.13-.36-.19h-.01c0-.02 0-.05-.01-.08 0-.2 0-.43-.03-.65.59-.75 1.13-1.55 1.55-2.4.35-.38.66-.81.91-1.3.33.21.66.42.98.64.27.15.52.33.76.52zm-36.43 25.61c-.43-.93-.85-1.86-1.17-2.82-.2-.56-.38-1.15-.4-1.69-.01-.27.05-.42.22-.63.18-.21.41-.46.6-.73.38-.55.67-1.1.87-1.78.09-.34.11-.82-.11-1.2-.2-.37-.42-.59-.58-.82a3.98 3.98 0 0 1-.73-1.47c-.16-.54-.2-1.07-.04-1.49.15-.42.57-.78 1.03-1.25.05-.05.1-.12.16-.17.98.96 2.02 1.87 3.18 2.66.18.13.37.24.55.36-.01.02-.03.02-.04.02-.09.09-.35.11-.72.38a.96.96 0 0 0-.37.64c-.04.24 0 .41.03.59.16.63.43 1.11.71 1.59.28.48.59.95.95 1.38.35.43.77.84 1.1 1.19.16.18.28.34.33.5.06.15.06.41.03.53-.02.25-.48.39-1.05.79-.3.21-.49.68-.44 1.03.04.34.14.63.27.88.68 1.3 1.58 2.4 2.57 3.4-.39-.06-.78-.12-1.16-.21-1.93-.44-3.86-1.04-5.79-1.68zm7.38 1.99c-.93-1.19-1.79-2.42-2.37-3.74-.1-.23-.15-.46-.16-.65.01-.19.05-.26.19-.37.15-.11.39-.19.66-.34.26-.14.61-.41.73-.82.1-.4.09-.69 0-1.05-.1-.35-.31-.63-.49-.85-.38-.44-.73-.78-1.05-1.19-.32-.4-.59-.82-.85-1.27-.25-.44-.49-.92-.6-1.32-.01-.09-.03-.18-.02-.21.01-.04-.01-.01.01-.03.05-.06.35-.13.69-.37.1-.07.19-.18.27-.3.88.51 1.79.95 2.71 1.36 1.27.53 2.57.7 3.83.81.22.22.33.6.34 1-.42.29-.71.68-.86 1.16-.18.59-.05 1.18.12 1.65.15.48.46.96.73 1.32.27.35.41.7.49 1.14.13.86.17 1.9.49 2.79.15.46.33.91.59 1.32.01.01.02.03.03.04-.34.02-.68.05-1.03.06-1.5.07-2.99.05-4.45-.14zm5.73.08c-.02-.05-.05-.09-.07-.13-.2-.41-.31-.86-.4-1.31-.08-.45-.13-.91-.16-1.37-.04-.45-.01-.91-.07-1.42-.04-.49-.22-1.05-.5-1.47-.26-.41-.43-.75-.56-1.18-.13-.41-.17-.79-.06-1.11.09-.31.38-.6.65-.73l.27-.13.02-.25c.04-.44.01-.83-.13-1.26 2.99.07 5.93-.18 8.83-.64 1.5-.22 2.98-.53 4.45-.87.73-.19 1.47-.37 2.19-.59.38-.12.76-.24 1.14-.38.22.39.42.78.61 1.18.42.88.72 1.81.89 2.75.18.94.05 1.91-.04 2.92-.05.61-.12 1.22-.19 1.82-.04.02-.09.03-.13.05-1.97.73-3.93 1.53-5.89 2.22-1.9.73-3.88 1.11-5.94 1.4-1.62.27-3.26.41-4.91.5zm18.92-25.82-.15-.24c.28-.16.56-.34.83-.54-.06.07-.11.14-.17.21-.17.2-.34.38-.51.57zm.26 1.42c0 .01 0 .02 0 0 0 .01 0 0 0 0zm-.7-1.5c.06-.03.12-.07.18-.11.05.11.09.21.12.32-.49.54-1 1.06-1.54 1.54-.76.66-1.53 1.3-2.37 1.82-.02-.03-.04-.05-.06-.08-.26-.38-.34-.84-.25-1.32.03-.24.11-.49.13-.75.01-.1-.01-.21-.05-.3.49-.06.99-.14 1.49-.25.84-.15 1.59-.49 2.35-.87zm-14.28 1.49c3.17.06 6.33.03 9.52-.26l.83-.09c.02.09.02.18-.01.27-.05.23-.16.46-.24.71-.17.49-.17 1.1.08 1.61.02.04.05.07.07.11-.76.44-1.55.79-2.39.9-2.02.29-4.16.28-6.26.34l-3.17.04-3.18.08c1.05.18 2.11.28 3.16.41 1.06.09 2.12.17 3.18.24 2.13.11 4.25.16 6.43-.13 1.01-.15 1.95-.58 2.78-1.1.44.54.93 1 1.3 1.5.58.71.48 1.55.08 2.42-.19.42-.41.81-.71 1.19-.14.19-.31.38-.48.62-.16.23-.35.6-.33.99.02.39.16.69.3.94l.3.5c-.36.04-.73.06-1.09.1l-2.24.17-4.47.29c-2.97.16-5.95.32-8.85.2-.54-.02-1.07-.06-1.59-.11 0-.04-.01-.09-.01-.13-.04-.69-.08-1.44-.18-2.15-.09-.69-.18-1.34-.36-2.06l.79-4.2.01-.05v-.03c-.15-1.2-.25-2.43-.17-3.66 2.29.19 4.59.28 6.9.34zm-21.26 1.1c-.12-.58-.18-1.21-.15-1.79.07-1.16.79-2.23 1.68-3.05a8.2 8.2 0 0 1 1.48-1.07c.27-.14.55-.28.83-.39l.43-.15c.12-.03.21-.07.33-.13l.01.07.02.15c.01.1.03.2.05.3a4.993 4.993 0 0 0 .69 1.67 5.18 5.18 0 0 0 1.74 1.68c.33.23.75.34 1.14.47.39.08.78.19 1.18.25.79.14 1.57.24 2.36.33.85.09 1.69.17 2.54.23-.14.57-.22 1.15-.26 1.74a20 20 0 0 0-.05 1.9l-1.12 4.2-.02.08.03.13c.13.62.21 1.35.27 2.04.06.69.11 1.34.14 2.04-.53-.09-1.04-.21-1.52-.39-1.13-.41-2.21-.9-3.27-1.45-.05-.45-.06-.81.06-1.22.06-.24.15-.44.25-.72.12-.29.16-.59.19-.88.09-1.15-.12-2.22-.45-3.28-.11-.8-.18-1.63-.14-2.45.02-.41.07-.83.18-1.22.11-.39.26-.79.55-1.11-.66.56-.92 1.46-1.06 2.29-.14.85-.17 1.71-.09 2.58v.01l.01.04c.23.99.36 2.07.21 3.03-.05.24-.1.47-.19.68-.08.21-.22.51-.3.78-.11.3-.15.64-.16.97-1.09-.61-2.14-1.31-3.18-2.06.12-.3.2-.63.17-.9-.02-.72-.23-1.32-.42-1.92-.2-.6-.43-1.16-.66-1.73-.41-1.13-.91-2.28-.47-3.34.38-1.09 1.42-1.87 2.48-2.46-1.15.39-2.31 1.07-2.92 2.27-.29.6-.36 1.31-.25 1.95.09.64.27 1.24.45 1.83.33 1.17.84 2.35.86 3.41 0 .12-.01.22-.03.31-.91-.67-1.82-1.36-2.75-2.04.05-.7-.08-1.32-.27-1.93-.26-.59-.48-1.16-.6-1.75zm-2.54 15.77c.3-1.04 1.25-1.86 1.88-3.13.66-1.31.29-2.86-.11-3.96-.16-.55-.24-1.12-.13-1.65.1-.53.38-1.01.76-1.49.34-.46.81-.99.93-1.72.74.92 1.51 1.82 2.33 2.68-.05.06-.11.12-.17.18-.39.4-.98.83-1.27 1.58-.27.75-.15 1.49.04 2.12.18.63.5 1.27.93 1.78.21.25.42.48.52.65.1.16.1.33.06.59-.13.5-.37 1.07-.66 1.55-.15.25-.32.46-.52.73-.22.27-.35.75-.29 1.09.08.68.32 1.27.57 1.84.44.91.95 1.77 1.49 2.6-1.76-.59-3.52-1.21-5.29-1.82l.14-.07-.48-.58c-.66-.81-1.05-1.99-.73-2.97zm96.21 30.29c-.03.96-.1 1.84-.29 2.69-.24 1.08-.32 2.03-.43 3.02-.19 1.96-.3 3.91-.41 5.85-.19 3.59-.31 7.18-.41 10.77l-18.2.12c.21-1.85.13-3.74-.16-5.6-.08-.51-.21-1.03-.3-1.52-.1-.48-.13-.98-.16-1.47-.01-1 .05-2.01.18-3.01.51-4.02 1.52-7.99 2.68-11.9.56-1.95 1.14-3.94 1.82-5.83.69-1.88 1.69-3.64 3.02-5.12 1.34-1.48 3.02-2.63 4.84-3.52 1.8-.95 3.73-1.66 5.58-2.54-1.94.67-3.89 1.29-5.79 2.1-1.89.82-3.7 1.94-5.19 3.44-1.5 1.49-2.55 3.38-3.31 5.32-.74 1.95-1.33 3.9-1.93 5.87-1.09 3.96-2.12 7.96-2.49 12.1-.09 1.03-.1 2.08-.05 3.12.05.52.11 1.05.24 1.57l.37 1.48c.42 1.79.61 3.65.58 5.5l-15.74.11-34.91.33-17.45.06-17.45-.06c-4.39-.02-8.77-.06-13.16-.1-.23-1.51-.51-3-.76-4.51l-.93-4.93c-.3-1.65-.66-3.28-.98-4.92l-.52-2.46-.26-1.23-.35-1.25c-1.15-3.28-3.27-6.06-5.69-8.41-2.44-2.33-5.25-4.34-8.42-5.49 1.49.76 2.89 1.67 4.2 2.7 1.32 1.01 2.55 2.13 3.68 3.33 2.24 2.41 4.24 5.12 5.29 8.19l.33 1.16.27 1.22.55 2.45c.39 1.63.74 3.26 1.16 4.88l1.21 4.87c.4 1.47.77 2.94 1.19 4.4-7.01-.08-14.01-.17-21.02-.24-.07-1.5-.14-3-.25-4.51-.07-.87-.14-1.73-.25-2.62l-.1-.68-.12-.63c-.06-.37-.11-.79-.15-1.21-.15-1.69-.24-3.42-.41-5.16-.08-.87-.19-1.74-.35-2.63-.08-.44-.17-.89-.31-1.35-.1-.43-.4-1.02-.48-1.26-.48-1.41-.6-3.17-.66-4.82-.02-.84-.01-1.68.04-2.5.05-.8.15-1.71.35-2.26.09-.17.31-.48.59-.76.26-.28.56-.57.87-.84.61-.55 1.28-1.06 1.95-1.55 1.36-.97 2.8-1.86 4.29-2.5.74-.32 1.51-.59 2.23-.67.34-.06.95-.11 1.35-.21.44-.1.89-.2 1.3-.32 1.7-.48 3.34-1.03 4.97-1.61 3.26-1.15 6.48-2.38 9.71-3.55 1.61-.59 3.23-1.16 4.85-1.66.78-.23 1.64-.44 2.49-.71.84-.26 1.66-.56 2.48-.86 3.26-1.23 6.41-2.64 9.53-4.13l.37-.18c3.48 1.98 7.07 3.75 10.97 5 2.11.69 4.35.79 6.49.82 2.16-.01 4.3-.18 6.43-.47 2.1-.32 4.3-.77 6.32-1.61 1.98-.81 3.92-1.65 5.83-2.55 3.76-1.74 7.47-3.59 11.09-5.63 1.77.8 3.54 1.3 5.33 1.81 1.9.5 3.81.93 5.72 1.33 3.83.79 7.67 1.46 11.53 2.01 3.86.55 7.72 1.04 11.66 1.32.51.02.99.05 1.54.05l.85-.05c.17 0 .3-.04.51 0 .78.06 1.67.32 2.52.63 1.71.65 3.38 1.54 4.83 2.64.71.55 1.38 1.16 1.84 1.8.09.16.23.32.28.47.05.17.14.26.18.5.11.41.18.87.26 1.33.29 1.86.48 3.79.65 5.71.29 3.86.56 7.74.45 11.53z" fill="#852150" stroke-width="none" opacity="1" stroke="none"></path></g><g id="svga-group-head" transform="matrix(1,0,0,1,0,0)"><g id="svga-group-ears-left-move" transform="matrix(1,0,0,1,0,0)"><g id="svga-group-ears-left"><path id="SvgjsPath10677" d="M62.22 91.07s-9.85-8.65-11.43-8.8c-1.36-.13-4.73 7.07-6.22 11.62-.39 1.2-.3 2.54.22 3.7 1.43 3.16 4.6 9.75 7.44 13.05 0 0 2.4.52 3.16.29s6.69-5 7.3-6.86.74-9.97-.47-13z" fill="#f3d4cf" stroke-width="none" opacity="1"></path><path id="SvgjsPath10678" d="M63.07 94.44c.16 1.16.25 2.33.29 3.5.05 1.17.05 2.34-.01 3.51-.03.59-.08 1.17-.15 1.76-.05.3-.09.59-.17.9-.09.31-.25.62-.41.85-.64.98-1.41 1.72-2.18 2.48-.78.74-1.58 1.44-2.39 2.12-.41.33-.82.67-1.25.98-.21.16-.43.31-.65.46l-.35.22c-.14.07-.31.15-.47.17-.59.07-1.09-.01-1.61-.08-.51-.07-1.02-.17-1.53-.28l-.12-.03-.07-.09c-1.28-1.53-2.32-3.25-3.3-4.99-.97-1.75-1.85-3.56-2.7-5.38l-1.25-2.75c-.44-.92-.63-2.02-.48-3.05.06-.52.23-1.01.39-1.48s.33-.94.5-1.41c.35-.93.7-1.86 1.07-2.78.76-1.83 1.55-3.65 2.59-5.32.26-.42.54-.82.88-1.2.17-.19.35-.37.6-.52.12-.07.27-.14.46-.14.17.01.28.06.42.1.94.41 1.65 1 2.43 1.56 1.52 1.14 2.98 2.35 4.41 3.61 1.44 1.25 2.85 2.53 4.24 3.87.43 1.1.64 2.26.81 3.41zm-9.79-10.31c-.75-.52-1.54-1.11-2.29-1.42-.08-.02-.18-.07-.23-.07-.03 0-.1.01-.18.06-.15.08-.31.22-.45.39-.3.32-.57.7-.83 1.09-1.02 1.59-1.92 3.33-2.74 5.1-.41.89-.81 1.78-1.16 2.71-.18.46-.35.92-.52 1.39-.17.47-.34.92-.4 1.41-.13.98.06 2 .49 2.88.42.91.86 1.81 1.32 2.7.9 1.78 1.87 3.52 2.88 5.22 1.02 1.69 2.09 3.35 3.32 4.79l-.19-.11c.97.18 2.03.38 2.91.29.1-.01.16-.06.25-.1l.31-.2.62-.45c.41-.3.82-.63 1.23-.95.81-.66 1.6-1.34 2.37-2.06.75-.72 1.52-1.47 2.11-2.3.15-.22.25-.4.33-.63.07-.24.12-.51.17-.78.08-.55.15-1.12.19-1.69.08-1.14.12-2.29.13-3.45.01-1.15-.04-2.31-.13-3.46-.09-1.14-.23-2.32-.59-3.39-2.96-2.34-5.91-4.75-8.92-6.97z" fill="#e4b3ab" stroke-width="none" opacity="1"></path><path id="SvgjsPath10679" d="M62.45 98.39S52.96 86.4 51.18 87.4s-4.58 6.65-4.57 8.53c.02 2.77 2.95 7.4 4.42 8.8s3.25 2.25 5.6 1.71 5.82-8.05 5.82-8.05z" fill="#e4b3ab" stroke-width="none" opacity="1"></path><path id="SvgjsPath10680" d="M56.36 101.74c-.34-1.14-.73-2.26-1.13-3.37a93.8 93.8 0 0 0-1.28-3.3c-.45-1.09-.93-2.16-1.46-3.21-.54-1.04-1.08-2.08-1.74-3.05l-.07-.11-.07.11c-.66 1.04-1.28 2.1-1.88 3.2-.3.55-.58 1.1-.85 1.67-.28.56-.51 1.16-.74 1.75l-.04.09.04.11c.41 1.24.84 2.46 1.29 3.69.22.61.48 1.21.73 1.81.26.6.52 1.19.87 1.78l.17.27.22-.2c.3-.28.53-.58.77-.9.23-.32.43-.67.61-1.03.35-.73.56-1.57.53-2.42v-.05l-.02-.04c-.44-.87-.91-1.73-1.36-2.6l-.05.03c.37.91.74 1.83 1.13 2.73l-.02-.09c-.03.77-.26 1.51-.61 2.16-.35.65-.82 1.24-1.32 1.7l.39.07c-.3-.51-.56-1.11-.81-1.69l-.72-1.79c-.48-1.2-.93-2.41-1.38-3.62v.2c.4-1.18.85-2.35 1.38-3.47.52-1.13 1.12-2.22 1.8-3.22h-.14c.63.95 1.08 2.04 1.55 3.11l1.36 3.24 1.38 3.24c.46 1.08.92 2.16 1.41 3.23l.06-.03z" fill="#c5796d" stroke-width="none" opacity="1"></path></g></g><g id="svga-group-ears-right-move" transform="matrix(1,0,0,1,0,0)"><g id="svga-group-ears-right"><path id="SvgjsPath10681" d="M137.78 91.07s9.85-8.65 11.43-8.8c1.36-.13 4.73 7.07 6.22 11.62.39 1.2.3 2.54-.22 3.7-1.43 3.16-4.6 9.75-7.44 13.05 0 0-2.4.52-3.16.29s-6.69-5-7.3-6.86c-.61-1.86-.74-9.97.47-13z" fill="#f3d4cf" stroke-width="none" opacity="1"></path><path id="SvgjsPath10682" d="M137.75 91.04c1.4-1.34 2.8-2.62 4.24-3.87 1.43-1.26 2.9-2.47 4.41-3.61.78-.55 1.49-1.14 2.43-1.56.14-.04.25-.1.42-.1.19 0 .34.07.46.14.24.15.43.33.6.52.34.38.61.78.88 1.2 1.04 1.67 1.83 3.49 2.59 5.32.38.92.72 1.85 1.07 2.78.17.47.34.94.5 1.41.16.47.33.96.39 1.48.15 1.03-.04 2.13-.48 3.05l-1.25 2.75c-.85 1.82-1.73 3.63-2.7 5.38-.98 1.75-2.02 3.46-3.3 4.99l-.07.09-.11.02c-.51.11-1.02.2-1.53.28-.52.07-1.02.14-1.61.08-.16-.02-.32-.09-.47-.17l-.35-.22c-.22-.15-.44-.3-.65-.46-.43-.32-.84-.65-1.25-.98-.82-.67-1.62-1.38-2.39-2.12-.77-.76-1.54-1.49-2.18-2.48a3.05 3.05 0 0 1-.41-.85c-.09-.31-.13-.61-.17-.9-.07-.59-.12-1.18-.15-1.76-.06-1.17-.06-2.34-.01-3.51.05-1.17.13-2.34.29-3.5.15-1.15.36-2.31.8-3.4zm.06.05c-.35 1.07-.49 2.24-.59 3.39-.09 1.15-.14 2.31-.13 3.46.01 1.15.05 2.3.13 3.45.04.57.11 1.14.19 1.69.05.27.1.54.17.78.08.23.18.42.33.63.59.83 1.36 1.58 2.11 2.3.76.72 1.56 1.41 2.37 2.06.41.33.81.65 1.23.95l.62.45.31.2c.09.04.15.09.25.1.88.09 1.94-.11 2.91-.29l-.19.11c1.23-1.44 2.3-3.1 3.32-4.79a93.9 93.9 0 0 0 2.88-5.22c.45-.89.9-1.79 1.32-2.7.43-.88.62-1.9.49-2.88-.06-.49-.23-.94-.4-1.41-.16-.47-.34-.93-.52-1.39-.35-.92-.76-1.82-1.16-2.71-.82-1.77-1.72-3.51-2.74-5.1-.26-.39-.53-.77-.83-1.09-.15-.16-.31-.3-.45-.39a.314.314 0 0 0-.18-.06c-.05 0-.15.06-.23.07-.75.31-1.54.9-2.29 1.42-3.02 2.23-5.97 4.64-8.92 6.97z" fill="#e4b3ab" stroke-width="none" opacity="1"></path><path id="SvgjsPath10683" d="M137.55 98.39s9.49-11.99 11.27-10.99 4.58 6.65 4.57 8.53c-.02 2.77-2.95 7.4-4.42 8.8-1.47 1.39-3.25 2.25-5.6 1.71-2.35-.54-5.82-8.05-5.82-8.05z" fill="#e4b3ab" stroke-width="none" opacity="1"></path><path id="SvgjsPath10684" d="M143.64 101.74c.34-1.14.73-2.26 1.13-3.37.4-1.11.84-2.21 1.28-3.3.45-1.09.93-2.16 1.46-3.21.54-1.04 1.08-2.08 1.74-3.05l.07-.11.07.11c.66 1.04 1.28 2.1 1.88 3.2.3.55.58 1.1.85 1.67.28.56.51 1.16.74 1.75l.04.09-.04.11c-.41 1.24-.84 2.46-1.29 3.69-.22.61-.48 1.21-.73 1.81-.26.6-.52 1.19-.87 1.78l-.17.27-.22-.2c-.3-.28-.53-.58-.77-.9-.23-.32-.43-.67-.61-1.03-.35-.73-.56-1.57-.53-2.42v-.05l.02-.04c.44-.87.91-1.73 1.36-2.6l.05.03c-.37.91-.74 1.83-1.13 2.73l.02-.09c.03.77.26 1.51.61 2.16.35.65.82 1.24 1.32 1.7l-.39.07c.3-.51.56-1.11.81-1.69l.72-1.79c.48-1.2.93-2.41 1.38-3.62v.2c-.4-1.18-.85-2.35-1.38-3.47-.52-1.13-1.12-2.22-1.8-3.22h.14c-.63.95-1.08 2.04-1.55 3.11l-1.36 3.24-1.38 3.24c-.46 1.08-.92 2.16-1.41 3.23l-.06-.03z" fill="#c5796d" stroke-width="none" opacity="1"></path></g></g><g id="svga-group-faceshape-wrap"><g id="svga-group-faceshape-single"><path id="SvgjsPath10711" d="M135.9 49.8c-6.7-7.4-11.3-13.2-28.8-17.3-1.8-.4-12.3-.4-14.1 0-17.5 4.1-22.1 9.9-28.8 17.3-7.1 7.8-9.5 29-9.5 29 0 9.6 1.3 32.3 13.3 47.2 17.8 22.2 32.1 22.3 32.1 22.3s14.2 0 32.1-22.3c12-14.9 13.3-37.6 13.3-47.2-.1 0-2.5-21.2-9.6-29z" fill="#f3d4cf" stroke-width="none" opacity="1"></path><path id="SvgjsPath10712" d="M107.1 32.5c-1.8-.4-12.3-.4-14.1 0-17.5 4.1-22.1 9.9-28.8 17.3-7.1 7.8-9.5 29-9.5 29 0 9.6 1.3 32.3 13.3 47.2 17.8 22.2 32.1 22.3 32.1 22.3s14.2 0 32.1-22.3c12-14.9 13.3-37.6 13.3-47.2 0 0-2.4-21.2-9.5-29-6.9-7.4-11.5-13.2-28.9-17.3zM142 63.8c.7 2.5 1.1 5 1.6 7.5.4 2.5.7 5 1 7.5-.2 7.4-1.3 14.8-3 22-.9 3.6-1.9 7.1-3.3 10.5-.7 1.7-1.4 3.4-2.2 5s-1.7 3.2-2.7 4.7l-1.5 2.2c-.3.4-3.4 4.2-3.4 4.2l-3.7 4.1-6.1 5.7c-2.8 2.3-5.8 4.5-9 6.2l-1.2.6-1.2.6c-.8.4-1.6.7-2.5 1l-1.3.4c-.4.1-.8.2-1.3.3-.4.1-1.71.43-2.9.4 0 0-1.4-.2-1.9-.3-.4-.1-.9-.2-1.3-.3l-1.3-.4c-.8-.3-1.7-.6-2.5-1l-1.2-.5-1.2-.6c-3.2-1.6-6.3-3.7-9.1-6l-4.1-3.6-3.9-3.9-1-1-.9-1-1.8-2.1c-1.2-1.4-2.3-2.8-3.3-4.4-1-1.5-2-3.1-2.8-4.8-.8-1.6-1.6-3.3-2.3-5.1-.7-1.7-1.3-3.5-1.8-5.3s-1-3.6-1.4-5.4-.8-3.6-1-5.5c-.3-1.8-.5-3.7-.7-5.5-.4-3.7-.5-7.4-.5-11.1.3-2.3.8-4.6 1.2-6.9.5-2.3 1.1-4.6 1.7-6.8.7-2.2 1.4-4.5 2.3-6.6.4-1.1.9-2.1 1.4-3.1s2.59-4.47 6.3-8.1c1.6-1.7 3.3-3.3 5-4.7 3.5-2.8 7.7-4.9 12-6.5l1.6-.6c6.69-2.31 10.6-2.2 11.8-2.3 2.3-.1 4.71-.26 7-.1 3.16.22 6.8 1.4 6.8 1.4 2.3.6 4.5 1.3 6.7 2.3.3.1 1.6.7 1.6.7.5.3 2.6 1.3 3.1 1.7.5.3 5.3 3.7 6.9 5.4 1.7 1.7 3.3 3.4 4.9 5.2 1.7 1.9 2.9 4.2 3.9 6.6 1.1 2.4 1.9 4.8 2.5 7.3z" fill="#c5796d" stroke-width="none" opacity="1"></path></g></g><g id="svga-group-mouth-single-move" transform="matrix(1,0,0,1,0.5,0)"><g id="svga-group-mouth-single"><path id="SvgjsPath10666" d="M86.3 122.77s3.78 5.21 6.46 6.76c2.69 1.54 6.74 2.85 11.37 1.48s9.37-6.41 9.37-6.41-5.48-2.85-7.85-3.27c-2.37-.42-6 1.66-6 1.66s-2.47-1.96-3.95-2.2-9.4 1.98-9.4 1.98z" fill="#da7c87" stroke-width="none" opacity="1"></path><path id="SvgjsPath10667" d="M84.89 122.33c2.54.48 5.06 1.07 7.57 1.72 1.26.32 2.5.67 3.76 1.04.65.2 1.19.39 1.81.47.61.09 1.23.12 1.86.11 1.25.01 2.52-.11 3.77-.31.31-.05.62-.1.94-.16.32-.06.65-.12.97-.16.64-.1 1.29-.17 1.93-.24 1.29-.13 2.58-.21 3.87-.25 1.29.02 2.55-.09 3.83-.34-1.21.49-2.52.76-3.79.89-1.27.17-2.54.36-3.81.57l-1.89.34c-.31.06-.62.13-.93.2l-.96.21c-1.29.24-2.59.37-3.91.38-.66-.01-1.32-.04-1.99-.15-.66-.09-1.36-.32-1.94-.53l-3.69-1.21c-2.49-.82-4.95-1.65-7.4-2.58z" fill="#cb5f6c" stroke-width="none" opacity="1"></path></g></g><g id="svga-group-eyes-left-move" transform="matrix(1,0,0,1,0,0)"><g id="svga-group-eyes-left"><g id="svga-group-eyesback-left"><path id="SvgjsPath10787" d="M80.2 77.2c7.5 0 13.5 5.8 13.5 13s-6 13-13.5 13-13.5-5.8-13.5-13 6-13 13.5-13z" fill="#ffffff" stroke-width="none" opacity="1"></path></g><g id="svga-group-eyesiriswrapper-left" transform="matrix(1,0,0,1,0,0)"><g id="svga-group-eyesiriscontrol-left" transform="matrix(1,0,0,1,0,0)"><g id="svga-group-eyesiris-left"><path id="SvgjsPath10749" d="M80.2 84.6c3.1 0 5.6 2.5 5.6 5.6s-2.5 5.6-5.6 5.6-5.6-2.5-5.6-5.6 2.5-5.6 5.6-5.6z" fill="#66724e" stroke-width="none" opacity="1"></path><path id="SvgjsPath10750" d="M80.2 87.2c1.7 0 3 1.3 3 3s-1.3 3-3 3-3-1.3-3-3 1.3-3 3-3z" fill="#000000" stroke-width="none" opacity="1"></path><path id="SvgjsPath10751" d="m79.5 87.8-.6-.6c-.2-.2-.5-.3-.8-.3s-.6.1-.8.3c-.2.2-.3.5-.3.8s.1.6.3.8l.6.6c.2.2.5.3.8.3s.6-.1.8-.3c.4-.6.4-1.2 0-1.6zm2.7 5.1c1 0 1-1.5 0-1.5-.9 0-.9 1.5 0 1.5z" fill="#ffffff" stroke-width="none" opacity="1"></path></g></g></g><g id="svga-group-eyesfront-left"><path id="SvgjsPath10795" d="M80.2 76.7c-7.8 0-14.1 6.1-14.1 13.6s6.3 13.6 14.1 13.6 14.1-6.1 14.1-13.6S88 76.7 80.2 76.7zm3.2 20.4c-3.9 1.7-7.2.9-9.8-.2S67 91.4 67 91.4s3.8-3.7 5.9-4.5 10-1.7 12.2 0 4.4 3.8 4.4 3.8c-.5.8-2.2 4.8-6.1 6.4z" fill="#f3d4cf" stroke-width="none" opacity="1" stroke="none"></path><path id="SvgjsPath10796" d="M66.8 91.3s4.8-3.6 6-4.3 7.7-1.2 10.7-.4c4.3 1.2 7.1 5.6 7.1 5.6s0-2.4-.7-5.1c-.8-2.7-5.2-6.9-5.2-6.9s-5.5-1.9-8.4-.9-4.7 3.9-6.3 6.2c-1.6 2.2-2.7 3.7-3.2 5.8z" fill="#ebc3bd" stroke-width="none" opacity="1" stroke="none"></path><path id="SvgjsPath10797" d="M90.6 92.4v-.2c0-1.2-.1-2.3-.3-3.5-.1-.6-.2-1.2-.4-1.7-.2-.6-.4-1.1-.7-1.6-.6-1-1.3-1.9-2.1-2.8s-1.6-1.8-2.4-2.6h-.1c-1-.3-2-.6-3.1-.8s-2.1-.4-3.2-.4c-.5 0-1.1 0-1.6.1-.6.1-1.1.3-1.6.6-1 .5-1.8 1.2-2.5 2s-1.4 1.7-1.9 2.5c-.6.9-1.2 1.8-1.8 2.6-1.1 1.8-2.1 2.6-2.6 4.7l.4.3c1.5 1.8 3.2 3.4 5.1 4.8.5.3 1 .7 1.6.9.5.2 1.1.4 1.7.6 1.1.3 2.3.5 3.5.6 2.4 0 4.8-.7 6.7-2.2.9-.7 1.7-1.6 2.4-2.6.7-.9 1.1-1.7 1.6-2.7.1.1 1.1 1.2 1.1 1.3l.2.1zm-1.1-1.5c-.1-.1-.1-.1-.1 0-.3.4-.5.8-.8 1.3-.3.5-.7.9-1 1.4-.7.9-1.5 1.7-2.5 2.4-.9.7-2 1.1-3.1 1.4-1.1.3-2.2.5-3.4.5-1.1 0-2.3-.2-3.4-.5-.6-.2-1.1-.3-1.6-.6-.5-.2-1-.5-1.5-.8-.9-.7-1.8-1.4-2.7-2.2-.8-.8-1.6-1.6-2.3-2.4l-.4-.3c.1-.5.3-1 .5-1.4.1-.1.1-.2.2-.4.5-.9 1.1-1.8 1.7-2.6 1.2-1.7 2.4-3.5 3.8-5 .7-.7 1.5-1.4 2.4-1.9.4-.2.9-.4 1.4-.5.5-.1 1-.1 1.5-.1 2 .1 4.1.5 6.1 1.1.8.8 1.6 1.6 2.3 2.4.8.9 1.5 1.8 2.1 2.7.3.5.6 1 .7 1.5.2.6.3 1.1.4 1.7.2 1.1.3 2.1.4 3.2.2.1-.7-.9-.7-.9z" fill="#000000" stroke-width="none" opacity="1" stroke="none"></path><path id="SvgjsPath10798" d="M90.7 92.5s-1.5-4.2-3.9-5.8c-1.8-1.2-7.3-2.6-11.4-2s-8.5 3.7-9.6 4.1-2.9 1-4.6.1c0 0 2.7 2.6 5.1 3.2 0 0 3.9-3.1 7-4.3s6.7-1.6 9.7-.9c2.9.8 4.1 1.5 7.7 5.6z" fill="#000000" stroke-width="none" opacity="1" stroke="none"></path></g></g></g><g id="svga-group-eyes-right-move" transform="matrix(1,0,0,1,0,0)"><g id="svga-group-eyes-right"><g id="svga-group-eyesback-right"><path id="SvgjsPath10788" d="M119.8 77.2c7.5 0 13.5 5.8 13.5 13s-6 13-13.5 13-13.5-5.8-13.5-13 6-13 13.5-13z" fill="#ffffff" stroke-width="none" opacity="1"></path></g><g id="svga-group-eyesiriswrapper-right" transform="matrix(1,0,0,1,0,0)"><g id="svga-group-eyesiriscontrol-right" transform="matrix(1,0,0,1,0,0)"><g id="svga-group-eyesiris-right"><path id="SvgjsPath10752" d="M119.8 85.3c2.7 0 4.9 2.2 4.9 4.9s-2.2 4.9-4.9 4.9-4.9-2.2-4.9-4.9 2.2-4.9 4.9-4.9z" fill="#66724e" stroke-width="none" opacity="1"></path><path id="SvgjsPath10753" d="M119.8 87.5c1.5 0 2.7 1.2 2.7 2.7s-1.2 2.7-2.7 2.7-2.7-1.2-2.7-2.7 1.2-2.7 2.7-2.7z" fill="#000000" stroke-width="none" opacity="1"></path><path id="SvgjsPath10754" d="M119.2 88.1c-.2-.2-.3-.4-.5-.5s-.4-.3-.7-.3c-.2 0-.5.1-.7.3-.2.2-.3.4-.3.7 0 .2.1.5.3.7.2.2.4.3.5.5s.4.3.7.3c.2 0 .5-.1.7-.3.3-.5.3-1.1 0-1.4zm2.4 4.5c.8 0 .8-1.3 0-1.3s-.8 1.3 0 1.3z" fill="#ffffff" stroke-width="none" opacity="1"></path></g></g></g><g id="svga-group-eyesfront-right"><path id="SvgjsPath10799" d="M119.8 76.7c-7.8 0-14.1 6.1-14.1 13.6s6.3 13.6 14.1 13.6 14.1-6.1 14.1-13.6-6.3-13.6-14.1-13.6zm6.9 21c-2.6 1.2-7 1.3-10.9-.4s-5.4-5.8-6-6.7c0 0 1.8-1.8 4.1-3.5 2.2-1.8 10.3-1.1 12.4-.2 2.1.9 5.9 4.3 5.9 4.3s-2.9 5.3-5.5 6.5z" fill="#f3d4cf" stroke-width="none" opacity="1" stroke="none"></path><path id="SvgjsPath10802" d="M132.1 91s-2.1-1.7-6.3-3c-1.3-.4-7.2-1.4-10.2-.8-3 .6-7 4.8-7 4.8s0-2 .7-4.3c.8-2.2 5.2-5.7 5.2-5.7s4.8-.8 7.6 0 5.5 2.5 7 4.3c1.7 1.9 2.5 3 3 4.7z" fill="#ebc3bd" stroke-width="none" opacity="1" stroke="none"></path><path id="SvgjsPath10803" d="M131.6 89.4c-.5-.8-1-1.6-1.6-2.4-.3-.4-.6-.8-.9-1.1-.3-.4-.7-.7-1.1-1-.7-.6-1.5-1.2-2.4-1.7-.8-.5-1.7-.9-2.6-1.2-.9-.3-1.9-.5-2.8-.6-1.9-.1-3.8 0-5.7.3h-.2c-.8.6-1.5 1.3-2.2 2s-1.4 1.4-2 2.3c-.3.4-.6.8-.8 1.3-.2.5-.3 1-.4 1.5-.2 1-.3 2.1-.3 3.1v.2l.2-.1c.4-.4.8-.8 1.2-1.1.5.9.9 1.9 1.5 2.7.7 1 1.5 2 2.5 2.7 1 .8 2.1 1.3 3.3 1.7 1.2.4 2.4.6 3.6.7s2.4.1 3.6-.2c.6-.1 1.2-.3 1.8-.5.3-.1.6-.2.9-.4.3-.2.5-.3.8-.5 1-.8 1.8-1.8 2.5-2.8.7-1 1.3-2 1.9-3-.2.1-.2-.9-.8-1.9zm-1.6 4.7c-.7 1-1.5 1.9-2.4 2.7-.9.8-2.1 1-3.2 1.3-1.2.2-2.3.2-3.5.2-1.2-.1-2.3-.3-3.5-.6-1.1-.3-2.2-.8-3.2-1.5-1.8-1.3-3.2-3.4-4.3-5.4-.3.3-.7.6-1.1.9v-.2c0-1 .2-1.5.4-2.5.1-.5.3-1 .5-1.4.2-.4.5-.8.8-1.2.6-.8 1.3-1.5 2.1-2.2.7-.7 1.4-1.3 2.2-1.9 1.8-.2 3.7-.3 5.5-.2.9.1 1.8.2 2.7.5.9.3 1.7.7 2.6 1.1s1.6 1 2.3 1.6c.4.3.7.6 1 1 .3.3.6.7.9 1.1.5.6 2.2 4 2.2 4-.6.8-1.3 1.8-2 2.7z" fill="#000000" stroke-width="none" opacity="1" stroke="none"></path><path id="SvgjsPath10804" d="M108.2 92.6s4.6-4.2 6.9-4.9c2.3-.7 8.4 0 10.4.6 1.9.6 6.8 3.4 7.5 3.8s3.6-1.8 4.2-2.6c0 0-2.2.8-5-.5-1-.4-6.1-3.2-8.9-3.3-2.9-.1-7.8 0-9.2.8-3.5 1.7-5.9 6.1-5.9 6.1z" fill="#000000" stroke-width="none" opacity="1" stroke="none"></path></g></g></g><g id="svga-group-facehighlight-single"></g><g id="svga-group-eyebrows-left-move" transform="matrix(1,0,0,1,0,0)"><g id="svga-group-eyebrows-left-rotate" transform="matrix(1,1.7453292519943295e-9,-1.7453292519943295e-9,1,1.3491613515270728e-7,-1.3681636801265995e-7)"><g id="svga-group-eyebrows-left"><path id="SvgjsPath10847" d="M64.67 79.76c2.13-1.22 4.29-2.43 6.52-3.32.55-.23 1.11-.42 1.66-.55l.4-.08c.11 0 .2-.01.34 0 .13 0 .26.02.4.04.14.01.28.04.42.07 1.15.2 2.32.52 3.48.86 1.17.34 2.32.75 3.47 1.15 1.15.4 2.32.76 3.51 1.05 1.19.29 2.38.56 3.6.77 1.21.22 2.43.41 3.69.49l.07-.22c-1.07-.71-2.19-1.28-3.31-1.81-1.13-.54-2.28-1-3.44-1.43-1.16-.42-2.35-.77-3.56-1.04-1.21-.26-2.42-.5-3.64-.75-1.22-.24-2.44-.47-3.72-.59l-.49-.03c-.16-.01-.33-.01-.51 0-.17 0-.38.03-.57.07l-.49.15c-.63.22-1.21.49-1.76.79-1.11.6-2.16 1.27-3.19 1.97a50.2 50.2 0 0 0-3 2.2l.12.21z" fill="#2a232b" stroke-width="none" opacity="1"></path></g></g></g><g id="svga-group-eyebrows-right-move" transform="matrix(1,0,0,1,0,0)"><g id="svga-group-eyebrows-right-rotate" transform="matrix(1,1.7453292519943295e-9,-1.7453292519943295e-9,1,1.3646366880948335e-7,-2.1346249923226424e-7)"><g id="svga-group-eyebrows-right"><path id="SvgjsPath10848" d="M134.94 78.92c-2.06-.91-4.15-1.81-6.28-2.42-.53-.16-1.06-.28-1.57-.35l-.37-.04c-.1.01-.19.01-.31.03-.11.01-.24.04-.37.07-.12.02-.25.06-.38.09-1.04.27-2.1.64-3.14 1.03-1.05.39-2.08.84-3.11 1.29-1.03.45-2.08.85-3.15 1.2-1.07.35-2.15.68-3.25.96-1.1.29-2.21.55-3.36.72l-.08-.19c.93-.71 1.91-1.3 2.91-1.86 1-.56 2.02-1.06 3.05-1.53 1.04-.46 2.1-.86 3.19-1.19 1.09-.33 2.19-.63 3.29-.94 1.1-.31 2.21-.61 3.38-.81.15-.02.29-.05.45-.06.15-.02.31-.03.47-.04.15-.01.35 0 .53.01l.46.09c.6.15 1.15.34 1.69.56 1.07.44 2.09.95 3.1 1.49 1 .54 1.98 1.11 2.95 1.71l-.1.18z" fill="#2a232b" stroke-width="none" opacity="1"></path></g></g></g><g id="svga-group-nose-single-move" transform="matrix(1,0,0,1,0,0)"><g id="svga-group-nose-single"><path id="SvgjsPath10837" d="M109.52 109.12c-.37-.88-.94-1.63-1.59-2.29.5.77.95 1.58 1.22 2.42.13.42.21.86.14 1.25-.04.2-.1.36-.23.53-.12.17-.25.34-.41.47-.61.58-1.49.8-2.35.68-.43-.05-.87-.17-1.28-.35-.39-.14-.76-.35-1.13-.54.33-.49.63-1.01.89-1.55-.86.8-1.66 1.61-2.52 2.32-.43.35-.86.7-1.32.96-.45.27-.94.48-1.33.46-.1.01-.18-.02-.27-.03-.08-.05-.15-.05-.26-.14-.21-.13-.43-.31-.65-.48-.44-.34-.87-.72-1.31-1.08-.87-.74-1.75-1.48-2.69-2.17.44.7.95 1.34 1.47 1.97-.44.2-.89.36-1.34.46-.56.11-1.15.13-1.62-.09-.95-.47-1.51-1.61-1.35-2.58.04-.25.12-.44.26-.65.15-.23.32-.46.49-.69.35-.45.72-.9 1.11-1.33l.58-.65c.23-.25.4-.49.58-.74.36-.5.68-1.03.94-1.61.26-.57.42-1.23.52-1.81.1-.59.2-1.18.26-1.77.13-1.18.24-2.36.27-3.55.08-2.37.02-4.76-.45-7.08.05 2.36-.12 4.7-.35 7.03-.13 1.16-.26 2.33-.44 3.48-.09.58-.18 1.15-.28 1.72-.11.58-.23 1.07-.47 1.57-.22.5-.5.99-.82 1.45-.16.23-.33.47-.5.65-.2.23-.39.45-.58.68-.38.46-.74.94-1.09 1.43-.17.25-.35.5-.5.77-.18.29-.3.67-.32 1-.11 1.38.74 2.67 1.98 3.12.64.2 1.29.1 1.86-.1.47-.16.9-.4 1.31-.67.21.25.41.5.63.74.39.44.8.84 1.24 1.25.22.2.45.39.72.57.11.09.32.19.5.27.19.05.39.1.58.1.77 0 1.36-.33 1.88-.66.51-.36.96-.75 1.36-1.2.39-.42.74-.87 1.06-1.34.66.58 1.44 1.09 2.36 1.27.47.1.98.11 1.46 0 .48-.12.94-.36 1.31-.7.19-.17.34-.37.48-.57.15-.2.26-.48.28-.73.03-.54-.1-1.03-.29-1.47z" fill="#c5796d" stroke-width="none" opacity="1"></path></g></g><g id="svga-group-hair-front"><path id="SvgjsPath10878" d="M98.8 29.6s-6.6-4.7-8.6-4.8c0 0-2.9.5-6.9 3.5-3.8 3.1-18.6 13.7-20.4 15.8S60 48.7 60 48.7s-4.1 10.7-5.5 16.2l-3.9 17.5 1 19.6 2.4 31.7 3.1 16.5 1.5 6.8-.1-8 6.1 10.8 7 1.8-1.4-9.1 6.9 9.7-4.4-16.2-4.9-19.7-1-26.7s-.1-15.6.3-18.6.8-5.8.8-5.8l2.9-8.9s2.8-7.7 3.9-10 3.5-8.1 4.4-9.4c1-1.3 2.3-2.2 2.3-2.2s2.9.4 4.1.8 14.7 4.6 14.7 4.6l9-4.6s3.3-1.9 4.8-1.8c1.5.1 4.6 1.4 4.6 1.4s5.5 4.1 6.9 6.2 6.9 10.7 6.9 10.7 1.8 14.7 1.9 18.3c.1 3.6.9 10.1.9 10.1s1.4 11.6 1.4 13.7.3 7.9.3 7.9l-.3 8.5s-1.8 15.5-1.9 16.4c-.1.9-2.2 17.3-2.2 17.3l-.7 5.9 3.7-2.3 1-6.1 2 4.3 2.1 3.6.4-12 7.5 10.8-1.7-18.1-2.4-23.3.3-26.4.9-20.9.1-9.1-5.2-10.2s-5.1-8.4-8.2-10.8c-3.1-2.3-10-8.3-15-10.3s-9.9-3.1-9.9-3.1l-8.6 3.4z" fill="#2a232b" stroke-width="none" opacity="1" stroke="none"></path><path id="SvgjsPath10879" d="M136.9 123.2c.2-2.1.4-4.1.6-6.2.2-2.1.4-4.1.4-6.3-.6-8.3-1.4-16.5-2.1-24.7-.8-8.2-1.5-16.4-2.3-24.7v-.2l-.1-.1c-.8-1.8-1.7-3.2-2.7-4.7-1-1.5-2-2.9-3.1-4.3-2.2-2.7-4.5-5.5-7.6-7.6-1.5-1-3.4-1.8-5.3-1.8-1 0-2 .2-2.9.6-.9.4-1.6.8-2.4 1.2l-9.1 4.7c-2.7-.9-5.4-1.7-8.1-2.5-2.8-.8-5.7-1.7-8.6-2.3-.4-.1-.7-.1-1.1-.2l-.6-.1c-.2 0-.5 0-.7.1-.9.4-1.3 1-1.8 1.6-.9 1.2-1.6 2.5-2.2 3.9-1.3 2.7-2.4 5.4-3.5 8.1-2.1 5.5-4.1 11-5.9 16.6-.2.7-.3 1.5-.5 2.2l-.3 2.2c-.2 1.5-.3 2.9-.4 4.4-.2 2.9-.3 5.9-.4 8.8-.1 5.9-.2 11.8 0 17.6.1 2.9.2 5.9.3 8.8l.2 4.4c0 .7.1 1.5.2 2.2.1.8.2 1.5.3 2.3 1.2 5.8 2.8 11.5 4.3 17.2 1.3 4.7 2.7 9.4 4 14.1l-5.1-6.6-.9-1.1.3 1.4c.6 3.1 1.2 6.3 1.9 9.4h.2l-1.2-8.1c1.9 2.7 3.8 5.4 5.8 8.1l1.7 2.4-.8-2.9-4.5-17c-1.5-5.7-3-11.4-4.1-17.1-.2-.7-.2-1.4-.3-2.1l-.1-2.2-.2-4.4c-.1-2.9-.3-5.9-.3-8.8-.2-5.9-.4-11.7-.4-17.6 0-2.9 0-5.9.1-8.8.1-2.9.2-5.9 1-8.6 1.4-5.5 3.3-11 5.5-16.5 1.1-2.7 2.3-5.4 3.6-8 .7-1.3 1.4-2.6 2.2-3.7.4-.5.9-1.1 1.4-1.3h.4l.5.1c.3.1.7.2 1.1.2 5.6 1.4 11.2 3.4 16.7 5.3l.3.1.3-.1L110 46c.8-.4 1.6-.8 2.3-1.1.7-.3 1.5-.4 2.2-.4 1.5 0 3 .7 4.4 1.6 2.7 1.8 5 4.5 7.1 7.2 1.1 1.4 2.1 2.8 3 4.2.9 1.4 1.8 2.9 2.4 4.3.7 8.2 1.5 16.3 2.3 24.5l2.4 24.6c.1 1.9-.1 4-.2 6.1-.2 2.1-.3 4.1-.5 6.2l-1.2 12.3-2.6 24.6h.2c1.3-8.1 2.6-16.3 3.6-24.5.5-4.2 1-8.3 1.5-12.4zm2.9 7.4c.2-1.5.4-3 .4-4.7l-.1-1.2v-3.4c.1-12.2.5-24.5.4-36.7 0-1.5 0-3.1-.1-4.6 0-.8-.1-1.6-.1-2.3 0-.4-.1-.8-.1-1.2l-.1-.6-.1-.6c-.5-3-1-6-1.6-9-.6-3-1.2-6-2.1-9-.4-1.5-.8-3-1.4-4.5-.3-.7-.6-1.5-.9-2.2-.4-.7-.8-1.5-1.6-2.2-2.5-1.9-5-3.6-7.6-5.3-2.6-1.7-5.2-3.3-8-4.7-.7-.3-1.4-.7-2.2-.9-.4-.1-.8-.2-1.5-.2-.5.1-.9.3-1.2.4-1.5.6-2.8 1.3-4.2 2.1-2.6 1.4-5.2 2.9-7.8 4.4-5.2-2-10.4-4-15.8-5.7-1.4-.4-2.7-.9-4.1-1.2-.7-.2-1.4-.3-2.1-.5H77c-.1 0-.3 0-.4.1-.4.2-.7.5-.9.8-.9 1.2-1.5 2.5-2.1 3.8-.6 1.3-1.2 2.6-1.7 3.9-2.2 5.2-4.1 10.6-6.1 15.9-1.9 5.3-3.8 10.7-5.6 16.1-.9 2.7-1.8 5.4-2.6 8.1-.4 1.4-.8 2.7-1.2 4.1-.2.7-.4 1.4-.5 2.1 0 .2-.1.4-.1.6V94c.1 5.8.5 11.4.9 17.1.4 5.7.9 11.3 1.4 17l1.6 17v.1c1.6 4.9 3.1 9.8 4.7 14.7l.2-.1c-1.3-5-2.6-9.9-3.9-14.9L58.4 111l-.5-8.5c-.1-2.8-.3-5.7-.4-8.5v-1.5c0-.2 0-.3.1-.5.1-.7.3-1.3.5-2 .3-1.4.7-2.7 1.1-4.1.8-2.7 1.5-5.5 2.3-8.2 3.2-10.9 6.6-21.7 10.9-32.2.5-1.3 1.1-2.6 1.7-3.9.6-1.3 1.3-2.5 2.1-3.6.2-.3.4-.5.7-.6h.8c.7.1 1.4.3 2 .5 1.4.4 2.7.8 4 1.3 5.3 1.9 10.6 4 15.8 6.2l.2.1.3-.1c2.7-1.5 5.4-2.9 8.1-4.3 1.4-.7 2.7-1.4 4.1-1.9.3-.1.7-.2.9-.3.1 0 .5 0 .8.2.7.2 1.3.5 2 .9 2.7 1.4 5.2 3.1 7.7 4.8 2.5 1.7 5 3.5 7.4 5.3.4.3.7.9 1 1.5.3.6.6 1.3.8 2 .5 1.4.9 2.8 1.3 4.3.8 2.9 1.4 5.9 1.9 8.9l1.6 9 .1.6.1.5c0 .3.1.7.1 1.1 0 .8.1 1.5.1 2.3 0 1.5.1 3 .1 4.6 0 12.2-.1 24.5.1 36.7 0 .8 0 1.5.1 2.3 0 .4 0 .8.1 1.2l.1.6v.5c.1 1.4-.1 3-.2 4.5-.3 3-.6 6.1-1 9.1-.7 6.1-1.5 12.1-2.3 18.2h.2c1.1-6 2.1-12.1 3.1-18.1.7-3.2 1.1-6.2 1.5-9.3zm9.3 30.1-.2-2.4-2.1-24.3-1.1-12.1c-.4-4-.5-8-.5-12 0-8.1.2-16.2.5-24.3l.9-24.3v-.2l-.1-.2c-.8-2.3-1.7-4.3-2.7-6.4-1-2.1-2.2-4-3.4-6-2.5-3.9-5.5-7.4-8.8-10.6-3.3-3.2-7.1-5.8-11.2-8-2-1.1-4.2-1.9-6.3-2.7-2.2-.7-4.4-1.4-6.7-1.7h-.1l-.1.1-8.2 3.6c-1.3-1-2.6-1.9-3.9-2.7-.7-.4-1.5-.9-2.2-1.2-.8-.3-1.6-.7-2.5-.8-.4 0-.9-.1-1.4.1-.4.1-.8.3-1.2.5-.8.4-1.5.8-2.2 1.3-1.4.9-2.8 1.9-4.1 2.9-5.4 4-10.7 8-15.9 12.2-1.3 1.1-2.6 2.1-3.9 3.2-1.2 1.4-1.8 2.9-2.5 4.5-1.3 3.1-2.4 6.2-3.5 9.4-1 3.2-2 6.4-2.9 9.6-.9 3.2-1.7 6.5-2.4 9.8-.2.8-.3 1.7-.5 2.5-.1.4-.1.8-.2 1.3v1.3c0 1.7.1 3.4.1 5 .1 3.3.3 6.7.5 10 .4 6.7.9 13.3 1.5 20 .3 3.3.5 6.7.9 10 .2 1.7.3 3.3.5 5 .2 1.7.5 3.4.8 5 1.3 6.6 2.8 13.1 4.3 19.5l.5-.1-.5-7.8h-.2l.1 4.7-1.3-6.8c-.6-3.3-1.3-6.6-1.8-9.8-.3-1.6-.6-3.3-.7-4.9-.2-1.6-.3-3.3-.4-5l-.7-10c-.5-6.7-.9-13.3-1.2-20l-.5-10c-.1-1.7-.2-3.3-.2-5v-1.2c0-.4.1-.8.1-1.2.1-.8.3-1.6.4-2.4 1.3-6.5 2.9-13 4.8-19.3 1-3.2 2-6.3 3.2-9.4.6-1.5 1.3-3.1 2.3-4.3.5-.5 1.2-1.1 1.8-1.6l1.9-1.6c5.2-4.2 10.3-8.4 15.8-12.3 1.3-1 2.7-1.9 4.1-2.8.7-.4 1.4-.9 2.1-1.2.4-.2.7-.4 1.1-.5.3-.1.7-.1 1.1 0 1.5.2 3 1.1 4.4 1.9 1.4.9 2.7 1.9 4 2.9l.2.2.2-.1 8.2-3.4c2.1.4 4.2 1 6.3 1.8 2.1.8 4.1 1.7 6.1 2.8 3.9 2.2 7.6 4.8 10.7 7.9 3.2 3.1 6 6.6 8.4 10.4 1.2 1.9 2.3 3.8 3.3 5.8 1 1.9 1.8 4 2.5 6-.4 8-.8 16.1-1.1 24.1-.3 8.1-.5 16.2-.4 24.4 0 2 0 4.1.1 6.1s.3 4.2.5 6.1l1.3 12.1 2.4 21.9-6.4-9-.8-1.1v12.8l-1.9-3.2-.2.1 2.1 3.8.3.6v-.7l.4-10.8 6.7 10.1 1.7 2.1z" fill="#1b141c" stroke-width="none" opacity="1" stroke="none"></path></g><g id="svga-group-glasses-single-move" transform="matrix(1,0,0,1,0,0)"><g id="svga-group-glasses-single" transform="matrix(1.1500005000000004,0,0,1.1500005000000004,-15.082552449384735,-14.070046785558745)"></g></g></g></g></g><rect id="svga-credit-rect" width="200" height="15" x="0" y="185" fill="#ecf0f1" opacity="0.5" style="display: none;"></rect><text id="svga-credit-text" font-family="Avenir Next, Roboto, Helvetica, Arial, sans-serif" font-size="10px" text-anchor="start" font-weight="400" size="10px" anchor="start" weight="400" fill="#333333" x="33.40447998046875" y="182.60824704170227" style="display: none;"><tspan id="SvgjsTspan10660" dy="13" x="33.40447998046875">Created on AvatarMaker.com</tspan></text></g><defs id="SvgjsDefs10612"><linearGradient id="SvgjsLinearGradient12440" x1="76.749" y1="123.1046" x2="76.749" y2="96.0963" gradientTransform="matrix(1 0 0 -1 0 202)" gradientUnits="userSpaceOnUse" class="svga-on-canvas-glasses-gradient-single-0-null"><stop id="SvgjsStop12441" stop-opacity="1" stop-color="#899ba1" offset="0" ></stop><stop id="SvgjsStop12442" stop-opacity="0.6554" stop-color="#7490b3" offset="0.3446" ></stop><stop id="SvgjsStop12443" stop-opacity="0.2966" stop-color="#6589c0" offset="0.7034" ></stop><stop id="SvgjsStop12444" stop-opacity="0" stop-color="#6086c4" offset="1" ></stop></linearGradient><linearGradient id="SvgjsLinearGradient12446" x1="-1740.6141" y1="122.2748" x2="-1740.6141" y2="96.09" gradientTransform="matrix(-1 0 0 -1 -1618 202)" gradientUnits="userSpaceOnUse" class="svga-on-canvas-glasses-gradient-single-1-null"><stop id="SvgjsStop12447" stop-opacity="1" stop-color="#899ba1" offset="0" ></stop><stop id="SvgjsStop12448" stop-opacity="0.6554" stop-color="#7490b3" offset="0.3446" ></stop><stop id="SvgjsStop12449" stop-opacity="0.2966" stop-color="#6589c0" offset="0.7034" ></stop><stop id="SvgjsStop12450" stop-opacity="0" stop-color="#6086c4" offset="1" ></stop></linearGradient><linearGradient id="SvgjsLinearGradient12504" x1="79.157" y1="118.6424" x2="79.157" y2="100.1003" gradientTransform="matrix(1 0 0 -1 0 202)" gradientUnits="userSpaceOnUse" class="svga-on-canvas-glasses-gradient-single-0-null"><stop id="SvgjsStop12505" stop-opacity="1" stop-color="#bfeaf2" offset="0" ></stop><stop id="SvgjsStop12506" stop-opacity="0.649" stop-color="#a1cae3" offset="0.351" ></stop><stop id="SvgjsStop12507" stop-opacity="0" stop-color="#6086c4" offset="1" ></stop></linearGradient><linearGradient id="SvgjsLinearGradient12509" x1="-1736.868" y1="118.4745" x2="-1736.868" y2="100.2229" gradientTransform="matrix(-1 0 0 -1 -1618 202)" gradientUnits="userSpaceOnUse" class="svga-on-canvas-glasses-gradient-single-1-null"><stop id="SvgjsStop12510" stop-opacity="1" stop-color="#bfeaf2" offset="0" ></stop><stop id="SvgjsStop12511" stop-opacity="0.649" stop-color="#a1cae3" offset="0.351" ></stop><stop id="SvgjsStop12512" stop-opacity="0" stop-color="#6086c4" offset="1" ></stop></linearGradient><linearGradient id="SvgjsLinearGradient12561" x1="79.8826" y1="80.3169" x2="79.8826" y2="107.6923" gradientUnits="userSpaceOnUse" class="svga-on-canvas-glasses-gradient-single-0-null"><stop id="SvgjsStop12562" stop-opacity="1" stop-color="#9ab4d3" offset="0" ></stop><stop id="SvgjsStop12563" stop-opacity="0.7593" stop-color="#93aed1" offset="0.2407" ></stop><stop id="SvgjsStop12564" stop-opacity="0.4009" stop-color="#7e9ecc" offset="0.5991" ></stop><stop id="SvgjsStop12565" stop-opacity="0" stop-color="#6086c4" offset="1" ></stop></linearGradient><linearGradient id="SvgjsLinearGradient12567" x1="-20.852" y1="80.3169" x2="-20.852" y2="107.6923" gradientTransform="matrix(-1 0 0 1 100 0)" gradientUnits="userSpaceOnUse" class="svga-on-canvas-glasses-gradient-single-1-null"><stop id="SvgjsStop12568" stop-opacity="1" stop-color="#9ab4d3" offset="0" ></stop><stop id="SvgjsStop12569" stop-opacity="0.7593" stop-color="#93aed1" offset="0.2407" ></stop><stop id="SvgjsStop12570" stop-opacity="0.4009" stop-color="#7e9ecc" offset="0.5991" ></stop><stop id="SvgjsStop12571" stop-opacity="0" stop-color="#6086c4" offset="1" ></stop></linearGradient><linearGradient id="SvgjsLinearGradient12650" x1="78.944" y1="79.1453" x2="78.944" y2="108.9636" gradientUnits="userSpaceOnUse" class="svga-on-canvas-glasses-gradient-single-0-null"><stop id="SvgjsStop12651" stop-opacity="1" stop-color="#ff73b2" offset="0.004166667" ></stop><stop id="SvgjsStop12652" stop-opacity="0.8085" stop-color="#ff75ae" offset="0.1949" ></stop><stop id="SvgjsStop12653" stop-opacity="0.5986" stop-color="#ff79a0" offset="0.4039" ></stop><stop id="SvgjsStop12654" stop-opacity="0.3799" stop-color="#ff818a" offset="0.6217" ></stop><stop id="SvgjsStop12655" stop-opacity="0.1566" stop-color="#ff8b6c" offset="0.844" ></stop><stop id="SvgjsStop12656" stop-opacity="0" stop-color="#ff9452" offset="1" ></stop></linearGradient><linearGradient id="SvgjsLinearGradient12658" x1="-20.9152" y1="79.1453" x2="-20.9152" y2="108.9636" gradientTransform="matrix(-1 0 0 1 100 0)" gradientUnits="userSpaceOnUse" class="svga-on-canvas-glasses-gradient-single-1-null"><stop id="SvgjsStop12659" stop-opacity="1" stop-color="#ff73b2" offset="0.004166667" ></stop><stop id="SvgjsStop12660" stop-opacity="0.8085" stop-color="#ff75ae" offset="0.1949" ></stop><stop id="SvgjsStop12661" stop-opacity="0.5986" stop-color="#ff79a0" offset="0.4039" ></stop><stop id="SvgjsStop12662" stop-opacity="0.3799" stop-color="#ff818a" offset="0.6217" ></stop><stop id="SvgjsStop12663" stop-opacity="0.1566" stop-color="#ff8b6c" offset="0.844" ></stop><stop id="SvgjsStop12664" stop-opacity="0" stop-color="#ff9452" offset="1" ></stop></linearGradient><linearGradient id="SvgjsLinearGradient12739" x1="78.1497" y1="84.6563" x2="78.1497" y2="104.4894" gradientUnits="userSpaceOnUse" class="svga-on-canvas-glasses-gradient-single-0-null"><stop id="SvgjsStop12740" stop-opacity="1" stop-color="#ffba38" offset="0.004166667" ></stop><stop id="SvgjsStop12741" stop-opacity="0.8314" stop-color="#f5b232" offset="0.1721" ></stop><stop id="SvgjsStop12742" stop-opacity="0.541" stop-color="#d99d24" offset="0.4612" ></stop><stop id="SvgjsStop12743" stop-opacity="0.1664" stop-color="#ac7b0c" offset="0.8343" ></stop><stop id="SvgjsStop12744" stop-opacity="0" stop-color="#966a00" offset="1" ></stop></linearGradient><linearGradient id="SvgjsLinearGradient12747" x1="-20.2071" y1="85.073" x2="-20.2071" y2="104.3473" gradientTransform="matrix(-1 0 0 1 100 0)" gradientUnits="userSpaceOnUse" class="svga-on-canvas-glasses-gradient-single-2-null"><stop id="SvgjsStop12748" stop-opacity="1" stop-color="#ffba38" offset="0.004166667" ></stop><stop id="SvgjsStop12749" stop-opacity="0.8314" stop-color="#f5b232" offset="0.1721" ></stop><stop id="SvgjsStop12750" stop-opacity="0.541" stop-color="#d99d24" offset="0.4612" ></stop><stop id="SvgjsStop12751" stop-opacity="0.1664" stop-color="#ac7b0c" offset="0.8343" ></stop><stop id="SvgjsStop12752" stop-opacity="0" stop-color="#966a00" offset="1" ></stop></linearGradient><linearGradient id="SvgjsLinearGradient12819" x1="79.3298" y1="80.8942" x2="79.3298" y2="111.1504" gradientUnits="userSpaceOnUse" class="svga-on-canvas-glasses-gradient-single-0-null"><stop id="SvgjsStop12820" stop-opacity="1" stop-color="#150000" offset="0.004166667" ></stop><stop id="SvgjsStop12821" stop-opacity="0.8088" stop-color="#190300" offset="0.1945" ></stop><stop id="SvgjsStop12822" stop-opacity="0.6342" stop-color="#240c00" offset="0.3684" ></stop><stop id="SvgjsStop12823" stop-opacity="0.466" stop-color="#361b00" offset="0.5359" ></stop><stop id="SvgjsStop12824" stop-opacity="0.3018" stop-color="#503100" offset="0.6994" ></stop><stop id="SvgjsStop12825" stop-opacity="0.1421" stop-color="#724c00" offset="0.8585" ></stop><stop id="SvgjsStop12826" stop-opacity="0" stop-color="#966a00" offset="1" ></stop></linearGradient><linearGradient id="SvgjsLinearGradient12828" x1="-20.9385" y1="80.7706" x2="-20.9385" y2="111.1051" gradientTransform="matrix(-1 0 0 1 100 0)" gradientUnits="userSpaceOnUse" class="svga-on-canvas-glasses-gradient-single-1-null"><stop id="SvgjsStop12829" stop-opacity="1" stop-color="#150000" offset="0.004166667" ></stop><stop id="SvgjsStop12830" stop-opacity="0.8088" stop-color="#190300" offset="0.1945" ></stop><stop id="SvgjsStop12831" stop-opacity="0.6342" stop-color="#240c00" offset="0.3684" ></stop><stop id="SvgjsStop12832" stop-opacity="0.466" stop-color="#361b00" offset="0.5359" ></stop><stop id="SvgjsStop12833" stop-opacity="0.3018" stop-color="#503100" offset="0.6994" ></stop><stop id="SvgjsStop12834" stop-opacity="0.1421" stop-color="#724c00" offset="0.8585" ></stop><stop id="SvgjsStop12835" stop-opacity="0" stop-color="#966a00" offset="1" ></stop></linearGradient></defs></svg>