<svg xmlns="http://www.w3.org/2000/svg" version="1.1" width="600px" height="600px" viewBox="0 0 200 200" style="overflow:hidden!important;"><g id="svga-group-wrapper"><g id="svga-group-backs-single"><path id="SvgjsPath10411" d="M0 0h200v200H0V0z" fill="#ecf0f1" stroke-width="none" opacity="1"></path></g><g id="svga-group-humanwrap-move" transform="matrix(1,0,0,1,0,-6)"><g id="svga-group-humanwrap"><g id="svga-group-hair-back-move" transform="matrix(1,-2.856368900253737e-18,2.856368900253737e-18,1,0,0)"><g id="svga-group-hair-back"><path id="SvgjsPath11171" d="M143.6 74.9c-1-11.1-5.9-25.7-5.9-25.7C100.9 28.3 57.4 68 57.4 68s-1.4 28.8-3.5 41.7 1.4 24.3 1.4 24.3c-1.9 2.9-.4 8.4 1.1 12.3 9-1.2 17.1-.3 24.2 1.6.8 2.5 1.7 5.6 1.8 8.5.1 2.1 0 4.5-.1 6.7.1-.1.1-.2.1-.2s7.8-3.9 14.9-8.3c2.8-1.8 5.6-3.6 7.6-5.2 7.3-5.9 13.2-6.3 24.7-20.2 11.5-14 15-43.2 14-54.3z" fill="#ffffff" stroke-width="none" opacity="1"></path><path id="SvgjsPath11172" d="M92.1 149.9c-1.5-.1-3-.1-4.5 0-1.7.1-3.3.4-5 .8l-.3-1.2c.8-.2 1.7-.4 2.5-.5 2.4-.4 4.8-.5 7.3-.3.8.1.8 1.3 0 1.2zm24.5-13.9c-8.3 5.5-17.2 10.3-26 15.1-2.4 1.3-4.8 2.6-7.2 4l.1 1.3c2.8-1.6 5.6-3.2 8.4-4.7 4.2-2.4 8.4-4.8 12.7-7.2 5.7-3.2 11.6-6.3 16.7-10.4 9.4-7.5 14.2-18.9 13.3-30.9-.1-.8-1.3-.8-1.2 0 1 13.7-5.6 25.3-16.8 32.8zm-25.5 6.6c.8.1 1.1-1.1.3-1.2-4-.7-7.9 0-11.3 2.2-.3-.8-.7-1.6-1.1-2.4 1.8-3.3 5.1-5.4 8.8-5.6.8 0 .8-1.3 0-1.2-3.9.2-7.4 2.3-9.5 5.5-.7-1.4-1.4-2.8-2.2-4.3v-.1c0-3.6 1.6-6.8 4.6-8.8.7-.4 0-1.5-.6-1.1-2.8 1.9-4.6 4.7-5.1 7.9-.6-1.2-1.2-2.5-1.8-3.7 0-.1.1-.2.1-.3.1-4.2 1.3-8.1 3.7-11.6.5-.7-.6-1.3-1.1-.6-2.1 3.1-3.4 6.6-3.8 10.3-3.1-6.9-5-14.1-2.6-22 .2-.8-1-1.1-1.2-.3-3.4 11.1 1.6 20.6 6.6 30.1 0 .2.1.4.3.5 2 3.9 4 7.8 5.3 11.8l1.2.3-1.2-3.3c3.2-2 6.8-2.8 10.6-2.1zm39.8-12.8c-7.9 9.6-13.4 12.9-18.2 15.8-2.2 1.4-4.4 2.6-6.6 4.5-2 1.6-4.6 3.4-7.3 5-6.5 4-13.6 7.7-15.2 8.5-.3.6-.9 1.9-1.7 3.6.9-2.7 1.4-5.7 1.4-5.7 2.2-1.1 8-4.2 13.5-7.5 3-1.8 5.9-3.7 8-5.5 2.4-1.9 4.5-3.2 6.8-4.6 4.9-3 10-6 17.7-15.4 11-13.3 14.8-41.9 13.7-53.5-.9-9.9-5-22.8-5.7-25.1C103.2 31 62.8 65.1 58.9 68.5c-.2 3.5-1.5 28.2-3.3 40.5-.3 4.9.3 10.2 1.8 15.2.1.1.1.3.1.5 1.5 4.6 3.7 9 6.7 12.4.9 1 1.8 1.9 2.8 2.8.4-.1.9.3.8.7 2.4 2 5 3.9 7.1 6.2-.6-.1-1.2-.2-1.7-.3l-.9-.9-.1.1c-.3.2-.7.4-1 .6-.6-.1-1.3-.1-2-.2.7-.5 1.4-1 2.1-1.4-1.3-1.2-2.7-2.3-4.1-3.5-1.5 1.4-2.6 3-3.5 4.7h-1.4c.9-2.1 2.2-4 3.9-5.6-1.1-1-2.2-1.9-3.2-3-1.9 2.6-3 5.6-3.2 8.7-.4 0-.8.1-1.2.1.2-3.4 1.4-6.7 3.5-9.6 0-.1.1-.1.1-.1-.7-.8-1.3-1.6-1.9-2.5-1.7 3.8-2.6 7.9-2.7 12.1 0 .1.1.2.1.2l-2.1.3c-1.5-4-2.8-9.3-1.1-12.6-.6-2.2-3.2-12.6-1.3-24.4 2-12.6 3.5-41.3 3.5-41.6s.1-.5.3-.7c.4-.4 44.4-39.9 81.4-18.9.2.1.4.3.5.5 0 .2 4.9 14.8 6 25.9 1.3 12-2.6 41.4-14 55.1zm-71.6 2.6c-1.3.3-2.3 1.3-2.7 2.6 0 .2-.2.3-.3.4-.7 1.9-.3 4.7.5 7.5.4-3.5 1.4-6.8 2.9-10 0-.1.1-.1.1-.2l-.1-.1c0-.1-.1-.2-.2-.3 0 0-.1 0-.2.1zm-3.4-2.2c.2 1 .4 1.9.5 2.5.6-.7 1.5-1.2 2.5-1.5h.1c-.4-.8-.7-1.5-1.1-2.3-.8-.1-1.6.4-2 1.3zm.6-5.1c-.5-.1-1 .2-1.1.8 0 .1-.1.2-.1.3l.3 2.4c.5-.5 1.2-.8 1.8-.9-.3-.9-.6-1.7-.9-2.6zm-1.7-7.2c0 2.3.1 4.4.3 6.3.3-.2.7-.4 1.1-.4-.7-1.9-1.1-3.9-1.4-5.9zm4.4-7.6c.5.7 1.2 1.3 1.9 1.9.6.5 1.3-.6.6-1.1-1.1-.9-2-2-2.6-3.3 0-.6.1-1.3.2-1.9.8 1.3 1.8 2.4 3.2 3.1.7.4 1.3-.7.6-1.1-1.4-.8-2.5-2-3.2-3.5-.1-.2-.2-.3-.3-.3.4-2.1 1.2-4.1 2.3-6.2.4-.7-.7-1.3-1.1-.6-9.9 18.1 5.8 33.1 14.2 49.3.6.1 1.2.2 1.7.3-1.6-3.2-3.5-6.3-5.4-9.4-5.2-8-11.5-17.5-12.1-27.2zm2.6-6c.6 1 1.5 1.8 2.6 2.2.8.3 1.1-.9.3-1.2-.8-.3-1.5-.9-1.9-1.6-.3-.7-1.4-.1-1 .6z" fill="#000000" stroke-width="none" opacity="1"></path></g></g><g id="svga-group-humanbody-back"><path id="SvgjsPath10476" d="M86.5 107c0 18.8 2.7 50.3-8.1 58s-31.8 13.9-36.7 24.4-3.6 29.4-3.6 29.4h124.1s.6-23.1-4.2-30.4c-6.6-10.1-28.5-17.7-36.5-22.9-8.1-5.2-10.9-32.2-10.9-58.8l-24.1.3z" fill="#ffffff" stroke-width="none" opacity="1"></path></g><g id="svga-group-chinshadow-single"></g><g id="svga-group-humanbody-front"><path id="SvgjsPath10477" d="M163.4 220.1H37.2l-.3-.9c-.1-.5-1.3-19.7 3.6-30.3 3.4-7.3 13.6-12.4 23.5-17.4 5.1-2.5 9.9-5 13.6-7.5 8.6-6 8.1-29.8 7.7-47.1-.1-3.5-.1-6.8-.1-9.8v-1.3l26.7-.4v1.3c0 32 3.8 53.5 10.3 57.7 2.4 1.6 6 3.3 10.2 5.4 9.7 4.7 21.9 10.6 26.7 18 5 7.6 4.4 30.9 4.4 31.2l-.1 1.1zm-124.1-2.6h121.6c-.1-2.4-.6-23.2-4-28.4-4.4-6.7-16.2-12.5-25.6-17-4.3-2.1-8-3.9-10.5-5.5-9.8-6.3-11.4-38.8-11.5-58.6l-21.5.4c0 2.6.1 5.5.1 8.5.4 18.9.9 42.4-8.8 49.3-3.8 2.7-8.7 5.1-13.9 7.7-9.5 4.8-19.4 9.7-22.3 16.1-3.3 6.9-3.7 25.9-3.6 27.5z" fill="#000000" stroke-width="none" opacity="1"></path><path id="SvgjsPath10478" d="M76.8 173.7c4.8 2.3 10.4 3.9 15.7 2.9.4-.1.4-.7 0-.8-5.1-.9-10.2-1.4-15.2-3.2-.6-.2-1.1.8-.5 1.1zm31.5 2.4c2.4.3 4.9-.4 7.1-1.2 2.1-.8 4.3-1.7 5.8-3.4.5-.5-.1-1.2-.7-.9-2.1.9-3.9 2.3-6.1 3-2 .7-4.1 1-6.2 1.5-.6.1-.4.9.1 1z" fill="#000000" stroke-width="none" opacity="1"></path></g><g id="svga-group-clothes-single"><path id="SvgjsPath11462" d="M83.8 152.6s-3.1 3.3-4.9 5.2-2.5 3.6-2.5 3.6v2.2s-6.5 5.1-11.4 6.3c-4.9 1.3-20.3 10.3-20.3 10.3s-8.9 8.4-8.8 22.5c0 .6 0 16.2.1 16.8h127.9s.1-15.6.1-16.7c.1-3.4-.4-11.4-5-17-6-7.2-34.2-19.9-34.6-21-.4-1.1-.5-3.6-3.4-6.5s-5.1-6.7-6-7.1c0 0 1.6 6 1.6 9.8s.5 6.5-1.6 7.6-9.8 4.5-10.7 5.8-1.1 4.5-2.2 7.2c0 0-2.9-6.5-5.4-7.4s-5.6-.4-7.4-2.2-5.3-9.1-5.3-12c0-2.9-.2-7.4-.2-7.4z" fill="#ffffff" stroke-width="none" opacity="1"></path><path id="SvgjsPath11463" d="M38.8 204.8c-.1-.1-.2.1-.1.2 4 1.9 8.3 3.8 12.7 4.8.1 0 .1-.1 0-.1-4.2-1.7-8.5-3.1-12.6-4.9zm126.1-2.9c-.1-3.9-.8-11.3-5.2-16.6-4.2-5.1-18.4-12.4-27.7-17.3-2.9-1.5-5.8-3-6.6-3.6-.1-.5-.2-1-.2-1.4h-.2c-.4-1.4-1.2-3.3-3.3-5.4-1.4-1.4-2.7-3.1-3.8-4.5-1.3-1.7-1.9-2.5-2.6-2.8-.3-.1-.8-.1-1 .2-.3.2-.4.6-.3 1 0 .1 1.6 5.9 1.6 9.5v1.9c.1 2.8.1 4.2-1.1 4.8l-1.8.9c-2.1 1-3.8 1.9-5.2 2.6-.2 0-.3.1-.4.1v.1c-2 1.1-3.3 1.9-3.7 2.5-.6.8-.9 2.2-1.2 3.7-.1.5-.2.9-.3 1.4-1.2-2.1-3-5-4.9-5.7-1.1-.4-2.2-.5-3.2-.7-1.6-.2-3-.4-3.8-1.3-1.7-1.7-5-8.9-5-11.4 0-2.9-.2-7.4-.2-7.5 0-.4-.3-.8-.7-.9-.4-.1-.8 0-1.1.2 0 0-3.1 3.3-4.9 5.3-1.9 2.1-2.7 3.8-2.7 3.9-.1.1-.1.3-.1.4v1.7c-1.4 1.1-6.7 4.8-10.7 5.9-5 1.3-19.9 10.1-20.5 10.4-.1 0-.1.1-.2.1-.4.4-9.1 8.8-9.1 23 0 .3.2 17.7.2 18h130v-.1c.1-1.2-.1-18-.1-18.4zm-10.8-19c1.1.8 2 1.5 2.8 2.2-.8-.5-1.6-.9-2.4-1.3-.2-.1-.3.2-.1.3 1.1.6 2.1 1.3 3.3 1.7.2.2.4.4.6.7.4.4.7.9 1 1.3-1.9-1.1-3.8-2-5.6-3.1 0-.5.2-1.1.4-1.8zm-.7 2.3c2.1 1.2 4.1 2.4 6.3 3.5.6.9 1 1.9 1.4 2.9-2.7-1.5-5.4-3-8-4.7.1-.6.2-1.1.3-1.7zm-.4 2.1c2.6 1.9 5.3 3.6 8.3 4.9.3.9.6 1.8.8 2.6-3.2-1.5-6.4-2.9-9.5-4.7.1-1 .2-1.9.4-2.8zm-.5 3.2c2.9 1.9 6.1 3.6 9.4 4.5.1 0 .1 0 .1-.1.6 2.5.8 4.8.8 6.5v5.3c-2.2-.9-10.4-4.5-11.2-4.7 0-1 0-2.1.1-3.4 2.5 1.4 5.1 2.8 7.9 3.7.2.1.3-.2.1-.3-2.7-1.3-5.4-2.5-8-3.8 0-1 .1-2 .1-2.9 2.9 2.1 6.2 3.9 9.6 4.9.2.1.3-.2.1-.3-3.4-1.4-6.6-2.9-9.6-5h-.1c.1-.6.1-1.1.2-1.6 0-.2.1-.5.1-.8 3.2 1.8 6.5 3.7 9.8 5.2.2.1.4-.2.2-.3-3.2-2-6.6-3.7-9.9-5.4.1-.4.1-.8.2-1.2.1 0 .1-.1.1-.3zm-38.9-20.1c.7-.4 1.4-.6 1.8-.9 2.4-1.2 2.3-3.7 2.2-6.6V161c0-1.8-.3-4.1-.7-6 .9 1.3 2.1 2.7 3.4 4 2.2 2.2 2.7 4.1 3 5.4.1.3.1.6.2.8 0 .1 0 .1.1.1.1.5.1 1.1.2 1.7.2 1.8.5 3.9.9 5.9.5 2.5 1.6 7.7 2.2 10.6-1.7-.8-4.4-2.3-6.3-4.1-1.9-1.8-3.4-3.5-4.5-4.8-.9-1-1.6-1.8-2.1-2.3-.5-.4-1.3-.8-2.1-.9.5-.4 1.2-.7 1.7-1zm-.6 4.8c-.2.2-.5.4-.8.6-.1-.8-.3-1.5-.3-2.2.2.1.4.2.5.3l.4.4c.1.3.2.6.2.9zm-1.5-1.8c0 .9.1 1.8.4 2.6-.2.2-.5.3-.7.4 0-1.1-.3-2.1-.5-3.2.3.1.6.1.8.2zm-1.1-.2c.1 1.1.2 2.4.6 3.4-.3.2-.7.4-1 .6 0-1.4-.2-2.7-.4-4.1.2 0 .5 0 .8.1zm-2.2-.1h.9c.1 1.4.2 2.9.5 4.2-.5.2-.9.4-1.4.6.1-1.4-.2-2.9-.3-4.3 0-.2-.4-.2-.4 0 .1.7.1 1.5.1 2.3-.2-.3-.5-.6-.9-.6-.2 0-.4.1-.5.1-.1-.4-.1-.8-.2-1.1.5-.3 1.3-.7 2.2-1.2zm-.3 5c-.4.2-.9.3-1.3.4 0-.3 0-.6-.1-1h.2c.5 0 .9-.3 1-.7 0 .5.1.9.2 1.3zm-2.8-3c.1-.1.3-.3.6-.5 0 .4.1.8.1 1.2-.2.2-.2.4-.2.7 0 .4.2.6.4.8.1.4.1.9.2 1.3l-1.2.3c0-.5-.1-.9-.2-1.4s-.1-.9-.3-1.4c.3-.4.4-.8.6-1zm-.9 3c.1-.3.1-.6.2-.8 0 .1 0 .2.1.3.1.5.2 1 .3 1.4-.3.1-.6.1-.8.2 0-.4.1-.8.2-1.1zm-5.8-.8c.2.6.3 1.1.6 1.7h-1.1c-.1-1-.4-2.1-.7-3.1.4.3.8.8 1.2 1.4zm-2.1-2.1c.1 0 .2.1.4.2.2 1.1.4 2.3.7 3.4-.3 0-.6 0-.9-.1-.2-1.2-.5-2.5-.7-3.7.1.1.3.2.5.2zm-1-.2c.1 1.2.3 2.6.7 3.8-.3 0-.6-.1-.8-.1-.1-.5-.3-1-.4-1.5-.2-.8-.2-1.5-.3-2.3.2 0 .5 0 .8.1zm-1.8-.3c.2 0 .3 0 .5.1 0 1.2.1 2.6.6 3.8-.5-.1-.9-.2-1.4-.3-.2-1.2-.4-2.4-.4-3.6.2-.1.5 0 .7 0zm-1.2-.2c-.1 1.2 0 2.5.5 3.6-.4-.1-.9-.2-1.3-.4 0-1.2-.1-2.3-.3-3.5.4.2.7.3 1.1.3zm-2.3-.6c.3.1.5.2.8.3.1 1.2.2 2.4.5 3.6l-.9-.3c0-1.1-.3-2.3-.5-3.4 0-.2.1-.2.1-.2zm-.4.5c.1 1 .2 2 .6 2.9l-.9-.3c0-.6-.1-1.3-.2-1.9.1-.2.3-.5.5-.7zm-.8 2.5c-.3-.1-.7-.3-1-.4.3-.3.6-.6.8-.9 0 .4.1.8.2 1.3zm-11-13v-2.6h-.2c.4-.6 1-1.6 2-2.7.9-1 2.2-2.4 3.2-3.5.1 1.5.1 3.5.1 5 0 3.1 3.3 10.5 5.4 12.7-1 1.1-3.3 3.9-5.1 5.6-1.5 1.4-5.2 4.2-7.6 6 .6-3.3 1.6-9.1 1.9-11.8.4-2.6.4-6.2.3-8.7zm-30.4 16c.2.5.5 1.3.8 2.2-.7-.5-1.5-.9-2.2-1.4.3-.2.8-.5 1.4-.8zm-2.1 1.2c.1 0 .2-.1.3-.1 1 .6 1.9 1.3 2.9 1.9.2.7.4 1.5.6 2.4-1.6-1-3.3-1.9-5-2.8.6-.8 1-1.2 1.2-1.4zm-1.5 1.7c1.8 1.1 3.6 2.2 5.4 3.1.2.8.4 1.8.6 2.8-2.5-1.3-4.9-2.6-7.2-4.2.5-.7.9-1.3 1.2-1.7zm-1.4 2c2.3 1.8 4.9 3.4 7.6 4.5.1.4.2.9.2 1.3.1.5.2.9.2 1.4-3.3-1.5-6.4-2.9-9.4-4.9.5-.9.9-1.7 1.4-2.3zm-5 12.3c4 2.4 8.1 4.4 12.4 5.9.2.1.3-.2.1-.3-4.2-1.8-8.3-3.6-12.4-5.7-.1 0-.2 0-.2.1.2-1 .4-2 .7-2.9 3.9 2.5 8.1 4.7 12.5 6.2.2.1.3-.3.2-.4-4.2-1.9-8.4-3.9-12.5-6.2.7-2.4 1.6-4.5 2.6-6.3 2.9 2.1 6.2 4.2 9.8 5.1.2 1.1.3 2.2.5 3.3 0 0 0-.1-.1-.1-3.9-1.5-7.7-2.9-11.4-5-.1-.1-.2.1-.1.2 3.4 2.3 7.3 4.3 11.4 5.1.1 0 .2 0 .2-.1.3 2.7.5 5.1.6 6.7v2.6c-3.4-1.3-11.7-4.5-14.5-6 0-.9.1-1.5.2-2.2zm-.3 2.4c2.4 1.5 11 4.9 14.5 5.9v1.3c-4.5-1.1-13.3-5-14.7-5.5.1-.6.1-1.1.2-1.7zm-.2 19.1v-2.4c1.7 1 3.5 1.9 5.4 2.4h-5.4zm6.6 0c-2.2-.9-4.5-1.7-6.6-2.8v-2.2c3.3 2.1 7 4 10.8 4.8.1 0 .2-.2.1-.2-3.7-1.6-7.4-3-10.9-4.9v-1.8c3.5 2.3 7.3 4.3 11.3 5.3.1 0 .2-.1 0-.2-3.9-1.6-7.7-3.2-11.4-5.4v-2c4.3 2.6 8.9 5 13.7 6.5.1 0 .2-.1.1-.1-4.6-2.2-9.2-4.3-13.7-6.7v-2.6c4 2.7 9 4.6 13.6 6.1.1 0 .1-.1.1-.1-4.5-2.2-9.2-3.9-13.6-6.3v-4.1c1 .5 10 4.3 14.7 5.3v11.5l-8.2-.1zm10.1 0v-16.1c-.2-2.6-.6-7.5-1.4-12.3-1.1-6.3-2.3-9.6-3-11.3 4.9-2.8 12.9-7.1 16-7.9 3.8-1 8.5-4.2 10.7-5.7 0 2.3 0 5.1-.2 7-.4 3.8-2.3 14.1-2.3 14.2-.1.4.1.8.4 1 .2.1.3.1.5.1s.4-.1.6-.2c.3-.2 7.4-5.4 9.8-7.7.9-.8 1.9-1.9 2.8-2.9 2.3 1.3 4.9 2.1 7.5 2.5.1.1.2.1.2 0 .3.1.7.1 1 .1.1.1.1.3.2.4.1.1.3 0 .2-.1 0-.1 0-.2-.1-.3.3 0 .7 0 1 .1 0 .1 0 .1.1.2s.3.1.3 0v-.1h1.9c.4.8.8 1.6 1.2 2.3-.1.5-.5 1.7-1.6 2.8-.3.3-.6.6-.9.8-1 .9-1.7 1.7-1.3 3.8.3 1.6.7 9.3.9 13.9 0 .1 1.6 13 1.8 15.3l-46.3.1zm51.4 0h-3c0-.2-1.7-15.4-1.7-15.6-.2-3.3-.6-12.1-.9-14-.2-1.1-.1-1.2.7-1.9.3-.2.6-.6 1-1 1.4-1.5 2-3.1 2.1-4.1.3-.7.5-1.5.7-2.3 1.6 0 3.2-.3 4.7-.9-1.2 3.7-4.4 6.4-5.1 10.3-.8 4.7 1.5 9.4 1.6 14.1-.1.1-.1 15.2-.1 15.4zm45.1-25.5c-.4 2.6-.4 20.9-.4 25.5h-44v-15.3c-.1-4.3-2.2-8.5-1.8-12.7.5-4.7 4.3-7.5 5.1-12 1.8-.8 3.5-1.9 4.9-3.2.2.2.3.4.5.6 1.2 1.4 2.7 3.1 4.7 4.9 3.4 3.3 8.6 5.2 8.8 5.3.1 0 .2.1.4.1s.5-.1.6-.2c.3-.2.4-.6.3-1 0-.1-1.9-8.9-2.6-12.4-.4-1.9-.6-3.9-.8-5.7 1.1.6 2.8 1.5 5.4 2.8 6.1 3.2 15.1 7.8 21.3 12-1.1 2.9-1.6 6.1-1.9 8.9-.2.8-.3 1.6-.5 2.4zm1.6 22.7c1.9 1 4 2 6.1 2.8h-6.1v-2.8zm7.7 2.8c-2.5-1.1-5.2-1.9-7.7-3.1v-3.1c2.4 1.2 5 2.3 7.6 2.9.1 0 .1-.1 0-.1-2.6-1-5.2-1.9-7.7-3.1v-2.7c3.4 1.7 7 3.3 10.7 4.3.1 0 .2-.1.1-.2-3.6-1.6-7.2-3-10.8-4.5v-3.1c3.4 1.9 7 3.6 10.6 4.8.1 0 .2-.1.1-.2-3.5-1.8-7.2-3.4-10.7-5.1v-2.9c.5.2 8.9 3.7 11.2 4.6v11.4l-3.4.1zm-57.2-29.8c0-.6-.5-1.1-1.1-1.1s-1.1.5-1.1 1.1c0 .6.5 1.1 1.1 1.1s1.1-.5 1.1-1.1zm-.2 11.3c-.6 0-1.1.5-1.1 1.1 0 .6.5 1.1 1.1 1.1s1.1-.5 1.1-1.1c0-.6-.5-1.1-1.1-1.1z" fill="#000000" stroke-width="none" opacity="1"></path></g><g id="svga-group-head" transform="matrix(1,-2.856368900253737e-18,2.856368900253737e-18,1,0,0)"><g id="svga-group-ears-left-move" transform="matrix(1,0,0,1,0,0)"><g id="svga-group-ears-left" transform="matrix(0.9499998000000001,0,0,0.9499998000000001,2.9944086641406997,4.380168506321709)"><path id="SvgjsPath10428" d="M63.9 77.8s-2.5-2.4-5.4-3.5c-2.9-1.1-6.1.7-7.1 3.7-1 2.9 1.3 15.1 5 19.5s6.2 4.8 8.7 2.5c2.6-2.4 7-10.8-1.2-22.2z" fill="#ffffff" stroke-width="none" opacity="1"></path><path id="SvgjsPath10429" d="M61.8 102.3c-1.9-.1-3.8-1.5-6.1-4.2-3.9-4.7-6.3-17.1-5.2-20.5.6-1.8 1.9-3.3 3.6-4.1 1.5-.7 3.2-.8 4.8-.2 3.1 1.2 5.6 3.6 5.7 3.7l.1.1c8.7 12.2 3.5 21.2 1.1 23.5-1.2 1.1-2.4 1.6-3.7 1.6-.1.1-.2.1-.3.1zm-3.6-27.1c-1.3-.5-2.5-.2-3.2.1-1.2.6-2.1 1.6-2.6 2.9-.8 2.5 1.3 14.3 4.9 18.5 1.9 2.3 3.4 3.4 4.7 3.5.8.1 1.6-.3 2.5-1.1 2.1-1.9 6.5-9.8-1.3-20.7-.4-.3-2.6-2.2-5-3.2z" fill="#000000" stroke-width="none" opacity="1"></path><path id="SvgjsPath10430" d="M55.2 77.4c3.3.6 5.4 6.1 6 9.8.1.1.1.2.2.3.4.6-.4 1.2-.8.6-.5-.8-1-1.6-1.8-1.9-1.4-.5-2.1 1.1-1.8 2.6.4 1.9 1.6 3 2.6 4.4.1.1 0 .3-.1.2-1.7-1-4.3-4.8-3.1-7.2.9-1.7 2.3-1.4 3.4-.4-.8-2.1-1.4-4.3-3-5.9-.5-.5-1.5-1.4-2.2-1.3-1.3.2-1.3 2.1-1.3 3.4-.1 1.7.1 3.4.4 5 0 .2-.2.2-.3.1-.6-2.4-2-10.4 1.8-9.7z" fill="#000000" stroke-width="none" opacity="1"></path></g></g><g id="svga-group-ears-right-move" transform="matrix(1,0,0,1,0,0)"><g id="svga-group-ears-right" transform="matrix(0.9499998000000001,0,0,0.9499998000000001,7.004866962837212,4.385168450027464)"><path id="SvgjsPath10431" d="M136.1 77.8s2.5-2.4 5.4-3.5c2.9-1.1 6.1.7 7.1 3.7 1 2.9-1.3 15.1-5 19.5s-6.2 4.8-8.7 2.5c-2.6-2.4-7-10.8 1.2-22.2z" fill="#ffffff" stroke-width="none" opacity="1"></path><path id="SvgjsPath10432" d="M137.9 102.3c-1.3 0-2.5-.5-3.7-1.6-2.5-2.2-7.6-11.3 1.1-23.5l.1-.1c.1-.1 2.7-2.5 5.7-3.7 1.5-.6 3.2-.5 4.8.2 1.7.8 3 2.3 3.6 4.1 1.1 3.3-1.3 15.8-5.2 20.5-2.3 2.7-4.2 4.1-6.1 4.2-.1-.1-.2-.1-.3-.1zm-1.1-23.9c-7.8 10.9-3.4 18.8-1.3 20.7.9.8 1.7 1.2 2.5 1.1 1.3-.1 2.8-1.2 4.7-3.5 3.5-4.2 5.7-16.1 4.9-18.5-.4-1.3-1.4-2.4-2.6-2.9-.7-.3-1.9-.6-3.2-.1-2.4 1-4.6 2.9-5 3.2z" fill="#000000" stroke-width="none" opacity="1"></path><path id="SvgjsPath10433" d="M144.8 77.4c-3.3.6-5.4 6.1-6 9.8-.1.1-.1.2-.2.3-.4.6.4 1.2.8.6.5-.8 1-1.6 1.8-1.9 1.4-.5 2.1 1.1 1.8 2.6-.4 1.9-1.6 3-2.6 4.4-.1.1 0 .3.1.2 1.7-1 4.3-4.8 3.1-7.2-.9-1.7-2.3-1.4-3.4-.4.8-2.1 1.4-4.3 3-5.9.5-.5 1.5-1.4 2.2-1.3 1.3.2 1.3 2.1 1.3 3.4.1 1.7-.1 3.4-.4 5 0 .2.2.2.3.1.6-2.4 2-10.4-1.8-9.7z" fill="#000000" stroke-width="none" opacity="1"></path></g></g><g id="svga-group-faceshape-wrap"><g id="svga-group-faceshape-single"><path id="SvgjsPath10460" d="M138.2 58.2c-2-10.8-13.3-27.4-37.2-27.4S69.1 43.5 65.5 53c-3 8.1-3 21.3-3 21.3s.4 28.4 10 46.1c9.3 17 28.9 31.8 46.2 11.8 21.5-24.8 20.6-57.8 20.6-57.8s.3-8.5-1.1-16.2z" fill="#ffffff" stroke-width="none" opacity="1"></path><path id="SvgjsPath10461" d="M100.7 143.1c-.8 0-1.5 0-2.3-.1-11.8-1.3-21.7-12.2-27-22-9.6-17.7-10.2-45.5-10.2-46.7 0-.6 0-13.6 3.1-21.8 5.8-15.5 17.8-23 36.7-23 10.9 0 20.5 3.4 27.7 10 5.5 5 9.6 11.9 10.8 18.5 1.4 7.6 1.2 15.7 1.2 16.4s.1 8.8-2.3 19.9c-2.3 10.5-7.4 25.8-18.7 38.8-5.8 6.6-12.2 10-19 10zm.3-111c-17.7 0-28.9 7-34.3 21.3-2.9 7.8-2.9 20.8-2.9 20.9 0 .3.5 28.3 9.9 45.5 5 9.2 14.2 19.5 25 20.6 6.8.7 13.3-2.3 19.1-9.1 20.9-24.1 20.3-56.6 20.3-57 0-.1.2-8.4-1.2-15.9-1.1-6-4.8-12.4-10-17-6.6-6.1-15.6-9.3-25.9-9.3z" fill="#000000" stroke-width="none" opacity="1"></path></g></g><g id="svga-group-mouth-single-move" transform="matrix(1,0,0,1,0,0)"><g id="svga-group-mouth-single"><path id="SvgjsPath10416" d="M114.77 119.83c-1.13.44-2.28.54-3.44.5-1.86-.99-3.84-2.01-5.96-2.23-2.25-.23-4.37 1.18-6.55.6-1.62-.43-2.83-1.07-4.53-.62-2.55.67-4.74 2.91-7.53 1.8-.08-.03-.14-.02-.19.01-.21-.08-.41-.16-.62-.26-.33-.16-.61.33-.29.49.82.41 1.64.6 2.47.68.01.01 0 .02.02.03 6.71 6.02 16.81 5.73 23.65.07 1.04.01 2.08-.11 3.11-.52.35-.13.2-.68-.14-.55zm-16.76-.81c1.63.54 2.65.39 4.28-.03 2.77-.72 5.16.06 7.55 1.23-2.67-.3-5.34-.96-7.92.34-1.04.52-1.2.66-2.56.65-1.39-.01-1.47-.19-2.53-.68-.69-.31-1.37-.49-2.12-.57-1.26-.13-2.5.04-3.73.18 2.54-1.04 4.18-2.06 7.03-1.12zm-8.95 1.81c1.16 0 2.34-.18 3.57-.28 1.98-.16 3.32.32 5.07 1.13.7.32 1.27.57 2.06.48 1.3-.16 2.36-1.22 3.58-1.61 1.62-.53 3.37-.25 5.01-.01.87.13 1.73.26 2.58.32-6.42 4.96-15.56 5.2-21.87-.03z" fill="#000000" stroke-width="none" opacity="1"></path></g></g><g id="svga-group-eyes-left-move" transform="matrix(1,0,0,1,1,2)"><g id="svga-group-eyes-left" transform="matrix(1.1000004000000003,0,0,1.1000004000000003,-8.025032481471271,-8.69003491258853)"><g id="svga-group-eyesback-left"></g><g id="svga-group-eyesiriswrapper-left"><g id="svga-group-eyesiriscontrol-left" transform="matrix(1,0,0,1,0,0)"><g id="svga-group-eyesiris-left"><path id="SvgjsPath10493" d="M84.8 84.7c-1-1.9-3.2-2.7-5.2-2-2.2.8-3.8 3-3.1 5.4.4 1.2 1.5 2.4 2.8 2.7.4.1.9.1 1.4.1.5.1 1.1 0 1.7-.2 2.4-.9 3.6-3.7 2.4-6z" fill="#ffffff" stroke-width="none" opacity="1"></path><path id="SvgjsPath10494" d="M81.1 91.2h-.4c-.5 0-1 0-1.5-.1-1.3-.3-2.5-1.4-3-2.9-.9-2.6 1-4.9 3.2-5.7 2.2-.8 4.6.1 5.6 2.1.6 1.2.7 2.6.2 3.8-.5 1.2-1.5 2.2-2.7 2.6-.4.1-.9.2-1.4.2zm-.3-.6c.5.1 1.1 0 1.6-.2 1.1-.4 1.9-1.2 2.4-2.3.4-1.1.4-2.3-.2-3.3-.9-1.7-3-2.5-4.9-1.8-2 .7-3.6 2.8-2.9 5 .4 1.2 1.5 2.3 2.6 2.5.4.1.9.1 1.4.1zm2.4-4.8c0-.1 0-.1-.1-.1-.6-1.1-2-1.5-3.1-1 .2.2.4.5.6.7.2.3.5 1 .1 1.2-.4.2-1 0-1.3-.2-.2-.1-.3-.3-.5-.5 0 .1-.1.1-.1.2-.1.2-.1.4-.1.6-.2.7 0 1.4.5 1.9.2.2.5.3.8.4.6.3 1.2.4 1.8.1-.1-.1-.2-.2-.2-.4 0-.3.2-.6.5-.7.3-.1.6 0 .7.2.3-.3.5-.7.6-1.1.1-.4 0-.9-.2-1.3zm-4.8 1.1c-.4-.1-.9-.1-1.3-.2-.1 0-.1.1 0 .1.4.1.9.3 1.3.2.1 0 .1-.1 0-.1zm-.1.8c-.2 0-.4.1-.6.1-.2 0-.5.1-.7.1-.1 0-.1.1 0 .1.4 0 1 0 1.3-.3.1.1.1 0 0 0zm.4.8c-.2.1-.3.2-.5.3-.2.1-.4.2-.5.3-.1 0 0 .2.1.1.3 0 .7-.3.9-.7.1.1.1 0 0 0zm.9.7c-.3.3-.4.6-.6.9-.1.1.1.2.1.1.2-.3.5-.6.6-1h-.1zm.8.4c-.1.3-.1.7-.2 1.1 0 .1.1.1.1 0 0-.4.1-.7.1-1.1.1-.1 0-.1 0 0zm1.4.4c-.1-.1-.1-.3-.2-.4 0 0-.1 0-.1.1 0 .2.1.3.2.4.1.2.1.3.2.5 0 .1.1 0 .1 0-.1-.2-.1-.4-.2-.6zm1.3-.2-.3-.3-.3-.3c0-.1-.1 0-.1.1.1.1.2.2.3.4.1 0 .2.2.4.1 0 .1 0 .1 0 0zm.9-.7c-.1-.1-.3-.2-.5-.3-.2-.1-.3-.2-.5-.3-.1 0-.2.1-.1.1.2.1.3.2.5.3.2.1.3.2.5.2.1.1.2.1.1 0zm.5-1.3c-.1-.1-.3-.1-.4-.1-.2 0-.3-.1-.5-.1-.1 0-.1.1-.1.1.3.1.7.3 1 .2.1.1.1 0 0-.1zm.2-1.7c-.3.1-.8.3-1 .5-.1.1 0 .1.1.1.2-.1.3-.2.5-.2.2-.1.3-.1.5-.2.1-.1 0-.2-.1-.2zm-.8-2-.1-.1s-.1 0-.1.1c0 0-.4.4-.4.5-.1.2-.2.3-.4.5-.1.1.1.1.1.1l.9-.9c.1-.1.1-.1 0-.2zm-1.9-.8c-.1.1-.1.3-.2.5s-.1.4-.2.6c0 .1.1.1.1 0 .1-.2.2-.3.2-.5.1-.2.2-.4.1-.5.2-.1.1-.1 0-.1zm-1.3.8c-.1-.2-.1-.3-.2-.5 0-.2-.1-.3-.1-.4 0-.1-.1 0-.1 0 0 .3.2.7.3 1 0 .1.2 0 .1-.1zm-1.2 0c-.1-.2-.2-.3-.3-.5 0-.1-.1 0-.1 0 .1.2.1.3.2.5.1.1.2.3.3.4.1 0 .1 0 .1-.1 0 0-.1-.2-.2-.3zm-.6.9-.3-.3c-.1-.1-.2-.2-.4-.3-.1-.1-.2 0-.1.1l.3.3c.2.1.3.3.5.2 0 .2 0 .1 0 0zm-.8.8-.9-.3c-.1 0-.1.1 0 .1.3.1.6.3.9.3 0 0 .1-.1 0-.1z" fill="#000000" stroke-width="none" opacity="1"></path></g></g></g><g id="svga-group-eyesfront-left"><path id="SvgjsPath10543" d="M81 74.4c-6.9 0-12.5 5.6-12.5 12.5S74.1 99.4 81 99.4s12.5-5.6 12.5-12.5S87.9 74.4 81 74.4zm7.1 17s-3.9.4-5.4.4c-4.1 0-7.1-1.8-7.1-1.8s-7.5-5.3-2.3-7.1c5-1.7 11.2.8 13.2 2.9 2.1 2.1 1.6 5.6 1.6 5.6z" fill="#ffffff" stroke-width="none" opacity="1"></path><path id="SvgjsPath10544" d="M71.3 84c-.3.8-.2 1.7.4 2.8 1.4 2.4 3.9 4.2 7.1 4.9 1.2.3 2.5.4 3.9.4s3-.1 4.7-.4c.1 0 .2-.1.3-.2 0 .1.1.3.3.3.2.1.5 0 .6-.3.7-1.9 0-4.3-1.6-6-1.2-1.3-3-2.2-5.4-3-3.2-.9-5.9-1-8.2-.2-1.2.5-1.8 1-2.1 1.7zm.8.4c.2-.5.7-.8 1.5-1.1 2.1-.7 4.7-.6 7.7.2 2.3.7 3.9 1.5 5 2.7 1.4 1.4 1.9 3.4 1.4 4.9-.1-.2-.2-.3-.4-.3h-.1c-3.3.6-6 .6-8.3 0-2.9-.7-5.3-2.3-6.5-4.5-.3-.5-.6-1.3-.3-1.9zm-4.9-3c.1 0 .2.1.2.2 0 .3.1.5.3.7.4.3 1.3.4 2.2.3.4-.1.9-.3 1.6-.5 1.6-.6 3.8-1.3 6.5-1.4 3.6-.1 8.3 1.2 10.3 4.2 1.2 1.7 1.7 4.2 1.5 7.2v.1c0 .1-.1.2-.2.2s-.2-.1-.2-.2V92c.2-2.9-.3-5.3-1.4-7-1.9-2.8-6.5-4.1-9.9-4-2.6 0-4.8.8-6.4 1.3-.6.2-1.2.4-1.6.5-1.1.4-2.1.2-2.6-.2-.3-.2-.5-.6-.5-1 0-.1.1-.2.2-.2z" fill="#000000" stroke-width="none" opacity="1"></path></g></g></g><g id="svga-group-eyes-right-move" transform="matrix(1,0,0,1,-1,2)"><g id="svga-group-eyes-right" transform="matrix(1.1000004000000003,0,0,1.1000004000000003,-11.970047574823042,-8.69003491258853)"><g id="svga-group-eyesback-right"></g><g id="svga-group-eyesiriswrapper-right"><g id="svga-group-eyesiriscontrol-right" transform="matrix(1,0,0,1,0,0)"><g id="svga-group-eyesiris-right"><path id="SvgjsPath10495" d="M123.2 84.7c-1-1.9-3.2-2.7-5.2-2-2.2.8-3.8 3-3.1 5.4.4 1.2 1.5 2.4 2.8 2.7.4.1.9.1 1.4.1.5.1 1.1 0 1.7-.2 2.5-.9 3.6-3.7 2.4-6z" fill="#ffffff" stroke-width="none" opacity="1"></path><path id="SvgjsPath10496" d="M119.6 91.2h-.4c-.5 0-1 0-1.5-.1-1.3-.3-2.5-1.4-3-2.9-.9-2.6 1-4.9 3.2-5.7 2.2-.8 4.6.1 5.6 2.1.6 1.2.7 2.6.2 3.8-.5 1.2-1.5 2.2-2.7 2.6-.5.1-.9.2-1.4.2zm-.4-.6c.5.1 1.1 0 1.6-.2 1.1-.4 1.9-1.2 2.4-2.3.4-1.1.4-2.3-.2-3.3-.9-1.7-3-2.5-4.9-1.8-2 .7-3.6 2.8-2.9 5 .4 1.2 1.5 2.3 2.6 2.5.5.1 1 .1 1.4.1zm2.4-4.8c0-.1 0-.1-.1-.1-.6-1.1-2-1.5-3.1-1 .2.2.4.5.6.7.2.3.5 1 .1 1.2-.4.2-1 0-1.3-.2-.2-.1-.3-.3-.5-.5 0 .1-.1.1-.1.2-.1.2-.1.4-.1.6-.2.7 0 1.4.5 1.9.2.2.5.3.8.4.6.3 1.2.4 1.8.1-.1-.1-.2-.2-.2-.4 0-.3.2-.6.5-.7.3-.1.6 0 .7.2.3-.3.5-.7.6-1.1.2-.4.1-.9-.2-1.3zm-4.7 1.1c-.4-.1-.9-.1-1.3-.2-.1 0-.1.1 0 .1.4.1.9.3 1.3.2v-.1zm-.1.8c-.2 0-.4.1-.6.1-.2 0-.5.1-.7.1-.1 0-.1.1 0 .1.4 0 1 0 1.3-.3.1.1 0 0 0 0zm.4.8c-.2.1-.3.2-.5.3-.2.1-.4.2-.5.3-.1 0 0 .2.1.1.3 0 .7-.3.9-.7.1.1 0 0 0 0zm.8.7c-.3.3-.4.6-.6.9-.1.1.1.2.1.1.2-.3.5-.6.6-1h-.1zm.9.4c-.1.3-.1.7-.2 1.1 0 .1.1.1.1 0 0-.4.1-.7.1-1.1.1-.1 0-.1 0 0zm1.4.4c-.1-.1-.1-.3-.2-.4 0 0-.1 0-.1.1 0 .2.1.3.2.4.1.2.1.3.2.5 0 .1.1 0 .1 0-.1-.2-.1-.4-.2-.6zm1.2-.2-.3-.3-.3-.3c0-.1-.1 0-.1.1.1.1.2.2.3.4.1 0 .2.2.4.1 0 .1.1.1 0 0zm1-.7c-.1-.1-.3-.2-.5-.3-.2-.1-.3-.2-.5-.3-.1 0-.2.1-.1.1.2.1.3.2.5.3.2.1.3.2.5.2.1.1.1.1.1 0zm.5-1.3c-.1-.1-.3-.1-.4-.1-.2 0-.3-.1-.5-.1-.1 0-.1.1-.1.1.3.1.7.3 1 .2v-.1zm.2-1.7c-.3.1-.8.3-1 .5-.1.1 0 .1.1.1.2-.1.3-.2.5-.2.2-.1.3-.1.5-.2.1-.1 0-.2-.1-.2zm-.8-2-.1-.1s-.1 0-.1.1c0 0-.4.4-.4.5-.1.2-.2.3-.4.5-.1.1.1.1.1.1l.9-.9v-.2zm-1.9-.8c-.1.1-.1.3-.2.5s-.1.4-.2.6c0 .1.1.1.1 0 .1-.2.2-.3.2-.5.1-.2.2-.4.1-.5.1-.1 0-.1 0-.1zm-1.3.8c-.1-.2-.1-.3-.2-.5 0-.2-.1-.3-.1-.4 0-.1-.1 0-.1 0 0 .3.2.7.3 1 0 .1.1 0 .1-.1zm-1.2 0c-.1-.2-.2-.3-.3-.5 0-.1-.1 0-.1 0 .1.2.1.3.2.5.1.1.2.3.3.4.1 0 .1 0 .1-.1 0 0-.1-.2-.2-.3zm-.6.9-.3-.3c-.1-.1-.2-.2-.4-.3-.1-.1-.2 0-.1.1l.3.3c.2.1.3.3.5.2 0 .2 0 .1 0 0zm-.8.8-.9-.3c-.1 0-.1.1 0 .1.3.1.6.3.9.3v-.1z" fill="#000000" stroke-width="none" opacity="1"></path></g></g></g><g id="svga-group-eyesfront-right"><path id="SvgjsPath10545" d="M119 74.4c-6.9 0-12.5 5.6-12.5 12.5s5.6 12.5 12.5 12.5 12.5-5.6 12.5-12.5-5.6-12.5-12.5-12.5zm5.3 15.6s-3 1.7-7.1 1.8c-1.5 0-5.4-.4-5.4-.4s-.5-3.4 1.5-5.5 8.2-4.6 13.2-2.9c5.4 1.7-2.2 7-2.2 7z" fill="#ffffff" stroke-width="none" opacity="1"></path><path id="SvgjsPath10548" d="M126.6 82.4c-2.3-.8-5.1-.7-8.2.2-2.4.7-4.2 1.7-5.4 3-1.6 1.7-2.3 4-1.6 6 .1.2.3.4.6.3.2-.1.3-.2.3-.3.1.1.2.2.3.2 1.7.3 3.3.4 4.7.4 1.4 0 2.7-.1 3.9-.4 3.1-.7 5.7-2.6 7.1-4.9.6-1.1.7-2 .4-2.8-.4-.8-1-1.3-2.1-1.7zm.9 3.9c-1.2 2.2-3.6 3.8-6.5 4.5-2.3.6-4.9.5-8.3 0h-.1c-.2 0-.4.1-.4.3-.5-1.6.1-3.5 1.4-4.9 1.1-1.2 2.7-2 5-2.7 3-.9 5.6-.9 7.7-.2.8.3 1.3.6 1.5 1.1.3.6 0 1.4-.3 1.9zm5.2-4.9c-.1 0-.2.1-.2.2 0 .3-.1.5-.3.7-.4.3-1.3.4-2.2.3-.4-.1-.9-.3-1.6-.5-1.6-.6-3.8-1.3-6.5-1.4-3.6-.1-8.3 1.2-10.3 4.2-1.2 1.7-1.7 4.2-1.5 7.2v.1c0 .1.1.2.2.2s.2-.1.2-.2V92c-.2-2.9.3-5.3 1.4-7 1.9-2.8 6.5-4.1 9.9-4 2.6 0 4.8.8 6.4 1.3.6.2 1.2.4 1.6.5 1.1.2 2.1.1 2.6-.3.3-.2.5-.6.5-1 0 0-.1-.1-.2-.1z" fill="#000000" stroke-width="none" opacity="1"></path></g></g></g><g id="svga-group-facehighlight-single"></g><g id="svga-group-eyebrows-left-move" transform="matrix(1,0,0,1,0,0)"><g id="svga-group-eyebrows-left-rotate" transform="matrix(1,1.7453292519943295e-9,-1.7453292519943295e-9,1,1.337295145731332e-7,-1.3852445590600837e-7)"><g id="svga-group-eyebrows-left"><path id="SvgjsPath10594" d="M66.31 78.71c1.61-1.61 4.74-3.82 8.03-3.97 3.29-.15 11.39 3.97 13.15 4.82 1.76.84 3.29 1.61 4.13.76.84-.84 1.3-1.76.15-2.9-1.15-1.15-12.23-5.12-16.43-4.82-4.22.3-9.03 6.11-9.03 6.11z" fill="#ffffff" stroke-width="none" opacity="1"></path><path id="SvgjsPath10595" d="M65.99 79.06c.19.17.47.16.65-.02 1.68-1.68 4.71-3.7 7.71-3.84 2.87-.14 9.97 3.33 12.3 4.47.25.12.46.23.62.3l.13.06c1.18.57 2.32 1.11 3.26 1.11.48 0 .91-.14 1.27-.5.46-.46 1.86-1.86.15-3.57-1.31-1.31-12.6-5.26-16.8-4.95-4.35.32-9.15 6.04-9.35 6.28-.15.21-.13.49.06.66zm9.86-6.01c.52 0 1.12.05 1.76.14l2.57 2.55c-.71-.28-1.43-.53-2.11-.75l-2.83-1.91c.04 0 .07-.01.11-.01.16-.01.33-.02.5-.02zm5.85 3.31-3.02-2.99c.73.14 1.51.31 2.3.51l3.23 3.59c-.78-.36-1.63-.74-2.51-1.11zm3.84-1.13c.73.25 1.42.49 2.06.73l2.2 4.07c-.28-.09-.59-.21-.91-.35l-3.35-4.45zm5.06 4.97-2.09-3.88c.54.22 1.03.42 1.45.61L91 80.15c-.12.04-.25.05-.4.05zm.92-.49-.78-2.39c.33.17.57.32.68.43.69.68.73 1.23.1 1.96zm-5.83-1.55-3.59-3.98c.8.22 1.6.46 2.39.71l3.18 4.23c-.16-.07-.36-.17-.6-.29-.38-.18-.85-.42-1.38-.67zm-14.84-3.07c1.1-.81 2.32-1.51 3.51-1.84l1.82 1.23c-.71-.15-1.35-.24-1.88-.21-1.17.05-2.34.36-3.45.82z" fill="#000000" stroke-width="none" opacity="1"></path></g></g></g><g id="svga-group-eyebrows-right-move" transform="matrix(1,0,0,1,0,0)"><g id="svga-group-eyebrows-right-rotate" transform="matrix(1,1.7453292519943295e-9,-1.7453292519943295e-9,1,1.3374697971357818e-7,-2.1054034959888668e-7)"><g id="svga-group-eyebrows-right"><path id="SvgjsPath10596" d="M133.69 78.71c-1.61-1.61-4.74-3.82-8.03-3.97-3.29-.15-11.39 3.97-13.15 4.82-1.76.84-3.29 1.61-4.13.76-.84-.84-1.3-1.76-.15-2.9 1.15-1.15 12.23-5.12 16.43-4.82 4.22.3 9.03 6.11 9.03 6.11z" fill="#ffffff" stroke-width="none" opacity="1"></path><path id="SvgjsPath10597" d="M134.06 78.41c-.2-.24-4.99-5.97-9.35-6.28-4.2-.31-15.49 3.64-16.8 4.95-1.71 1.71-.31 3.11.15 3.57.36.36.79.5 1.27.5.94 0 2.08-.54 3.26-1.11l.13-.06c.16-.08.37-.18.62-.3 2.33-1.14 9.43-4.61 12.3-4.47 3 .14 6.03 2.15 7.71 3.84a.478.478 0 0 0 .71-.64zm-9.42-5.34c.04 0 .07.01.11.01l-2.83 1.91c-.68.22-1.39.48-2.11.75l2.57-2.55c.64-.09 1.24-.14 1.76-.14.18 0 .35.01.5.02zm-8.86 4.4 3.23-3.59c.8-.2 1.57-.37 2.3-.51l-3.02 2.99c-.87.37-1.72.75-2.51 1.11zm-4.67 2.22c-.32.14-.62.26-.91.35l2.2-4.07c.64-.24 1.34-.49 2.06-.73l-3.35 4.45zm-2.11.46 1.05-3.22c.42-.19.91-.4 1.45-.61l-2.09 3.88c-.16 0-.29-.01-.41-.05zm-.42-2.4c.11-.11.35-.26.68-.43l-.78 2.39c-.63-.73-.59-1.28.1-1.96zm4.35 1.08c-.25.12-.45.22-.6.29l3.18-4.23c.79-.25 1.59-.49 2.39-.71l-3.59 3.98c-.53.25-1 .49-1.38.67zm12.76-4.56c-.53-.02-1.17.06-1.88.21l1.82-1.23c1.19.32 2.41 1.02 3.51 1.84-1.1-.46-2.27-.77-3.45-.82z" fill="#000000" stroke-width="none" opacity="1"></path></g></g></g><g id="svga-group-nose-single-move" transform="matrix(1,0,0,1,0,0)"><g id="svga-group-nose-single"><path id="SvgjsPath10575" d="M107 108.4c-.7-.6-1.8-.6-2.6-.4-2.2.5-3.6 2.5-6 1.4-1.4-.6-2.7-1.8-4.3-1.9-.8-.1-1.9.1-2.4.8-.4.6-.1 1.3.6 1.6 1.1.6 2.6-.1 3.7-.6 1.1.6 2.2 1.4 3.5 1.6s2.4-.4 3.5-1l.6-.3c1 .5 2.5 1.1 3.5.4.4-.4.4-1.1-.1-1.6zm-14.3.5c.3-.4 1.1-.3 1.7-.2-.1 0-.2.1-.3.1-.2 0-1.4.1-1.4.1z" fill="#000000" stroke-width="none" opacity="1"></path><path id="SvgjsPath10576" d="M96.7 100.5c-.1-6.5.1-13 .7-19.5.1-.7-1.1-.7-1.1 0-.6 6.5-.8 13-.7 19.5 0 .8 1.1.8 1.1 0z" fill="#000000" stroke-width="none" opacity="1"></path></g></g><g id="svga-group-hair-front"><path id="SvgjsPath11169" d="M121.9 48s-4.4 9.3-17.2 12.5-30 7.9-33.8 13.7-4.4 11.9.3 19.8 4.9 14.8-2.3 18.3-4.1 11.4-.3 14c3.8 2.6-.6 7.3-1.8 9.9-1.2 2.6.9 5.5.9 5.5s-5-2.6-2.9-9.9c2-7.3-6.1-6.1-5.2-14.3s5.8-8.7 4.7-15.4c-1.2-6.7-2-15.4-6.7-25.6s.6-34.4 21.5-45.4 39.6-3.5 44.6 2.9c0 0 2 0 9.3 5.2 7.3 5.2 14 28.5 5.8 39.9 0 .1-9.9-6.3-16.9-31.1zM74.1 178.5c-.1-.1-.2-.1-.4-.1l.3-.3c2.9-3.2 7.6-13.4 8.3-14.8.1-2.1.2-4.5.1-6.7-.1-2.9-.9-6-1.8-8.5-7.1-1.8-15.3-2.8-24.2-1.6 1 2.7 2 4.7 2 4.7-4.9 4.5-2.1 16-2.1 16-4 4.3-4.2 12-2.1 15.7-1.2 3.2-4 7.2-1.6 15.7 2.4 8.7 8.1 9.3 8.1 9.3 3.8 3.8 11.5 6.9 11.5 6.9s-2.3-6.4-1-12 2.9-10.3 2.9-10.3l.7 10.3c5.1-6 3.7-20.9-.7-24.3z" fill="#ffffff" stroke-width="none" opacity="1"></path><path id="SvgjsPath11170" d="M133.6 38.2c-5.7-4.1-8.3-5.1-9.4-5.3-5.4-6.5-24.4-14-45.6-2.9C63.2 38.1 55.8 53.5 55 65.5c-.3 4.3.3 8.2 1.6 11.2 3.9 8.6 5.1 16.1 6.1 22.3.2 1.1.3 2.1.5 3.1.5 3.2-.4 4.7-1.7 6.9-1.1 1.9-2.6 4.2-3 8.3-.5 4.5 1.6 6.6 3.3 8.2 1.6 1.6 2.8 2.8 2 5.9-2.2 8 3.3 11 3.4 11 .2.1.3.1.5.1.3 0 .5-.1.8-.3.3-.3.3-.9.1-1.2 0 0-1.7-2.5-.8-4.6.2-.5.6-1.2 1.1-1.9 1.6-2.7 4.1-6.7.3-9.2-2-1.4-3.9-4.5-3.6-7.3.2-2.1 1.4-3.8 3.8-4.9 3-1.5 5-3.6 5.8-6.3 1.1-3.7.1-8.2-3.1-13.5-4.1-7-4.2-12.7-.3-18.8 3.8-5.9 24.4-11.1 33.2-13.3 9.5-2.4 14.5-8 16.6-11 7 23 16.3 29.3 16.7 29.5.4.3 1 .2 1.4-.3 8.7-12.1 1.3-35.9-6.1-41.2zm-54-6.5c7.6-4 14.9-5.5 21.3-5.5 8.5 0 15.4 2.7 19.4 5.6-18.8-5.7-38.8-1.6-53.8 10.7 3.3-4.1 7.7-7.9 13.1-10.8zM63.2 47.3c15.5-15.5 38.2-20.7 59-13.5-12.9 7-28.8 5-42.5 9.6-8.7 2.9-16.5 8-21.5 15.6 1.1-3.9 2.7-7.9 5-11.7zm-5.7 15.5C63.3 51 75.8 45 88.3 42.4c11.5-2.4 23.8-1.8 34.4-7.5-1.7 8.8-13.8 13.3-21.2 15.8-7.2 2.5-14.6 4.1-21.8 6.3-7.2 2.3-20.4 6.6-22.3 15.1-.4-2.6-.4-5.8.1-9.3zm5.9 47.2c1.3-2.2 2.6-4.3 1.9-8.2-.2-1-.3-2-.5-3.1-1-6.1-2.2-13.8-6.1-22.4-5-21.9 58.8-18.4 65-40 .9 15.2-17.8 20-29.9 21.8-10.1 1.5-21.5 3.2-28.1 11.9-2.4 3.2-4 7-3.9 11.1.2 5.3 3.4 9.6 5.7 14.2 1.7 3.3 3.2 7.5 2 11.2-1.3 4-5.3 5.7-7.6 8.9-.5.6-.9 1.3-1.2 2 .4-3.6 1.6-5.6 2.7-7.4zm41.2-50.7C88.9 63.2 74 67.6 70.2 73.4c-4.3 6.6-4.2 13.3.3 20.8 2.8 4.7 3.8 8.8 2.9 11.9-.7 2.1-2.2 3.8-4.8 5-3.8 1.8-4.8 4.6-4.9 6.5-.3 3.8 2 7.5 4.5 9.2 2 1.4.9 3.6-.9 6.6-.5.8-.9 1.5-1.2 2.1-.2.4-.3.9-.4 1.3-.3-1.3-.4-2.9.2-5 1.2-4.2-.8-6.1-2.5-7.8-.8-.8-1.5-1.5-2.1-2.5-1.5-6.1 7.8-9.7 9.4-14.9 1.1-3.6.1-7.5-1.4-10.8-3-6.8-8.1-12.6-5.3-20.4 2.5-7 9.3-11.3 16-13.5 10.8-3.4 22.8-2.5 33.1-7.9 3-1.6 5.6-3.7 7.7-6.2-1.2 2.1-5.8 8.9-16.2 11.5zm34 18.1c-2.4-2.1-10-10-15.7-30-.1-.4-.5-.7-.9-.7-.2 0-.3 0-.5.1 1.8-2.6 3-5.5 3.3-8.7 1.8 13.6 6.7 26.3 14.7 37.5-.2.7-.5 1.3-.9 1.8zm1.5-3c-6.8-9.8-11.3-20.7-13.4-32.3 1.9 3.3 4.5 6.3 6.8 9.4 4.7 6.4 7.1 13.6 7.1 21.4-.1.5-.3 1-.5 1.5zm-2.9-19.7c-3.4-5.9-8.8-10.6-11.1-16.9-.1-.5-.1-1-.2-1.6 0-.3-.2-.5-.5-.6 0-.1 0-.2-.1-.3 1.3.6 3.6 1.9 7.1 4.5 4.9 3.6 9.9 16.7 9.1 27.9-.6-4.6-2-8.9-4.3-13zM75 146.6l-.1.2c-.6-.1-1.2-.2-1.7-.3.2.2 0 .4.3.6-4.2 3.1-7 7.5-8.2 12.5-.6-.6-1.2-1.2-1.7-1.8.5-4.8 3.6-9 7.6-11.5-.6-.1-1.3-.1-2-.2-3.4 2.5-6 6.1-6.8 10.3-.2-.4-.5-.7-.7-1.1 0-.1.1-.2.1-.3-.3-3.2.5-6.3 1.9-9.1h-1.4c-.9 2.1-1.8 4.3-1.8 6.7-.2-.7-.4-1.4-.5-2.2 0-.2-.1-.3-.2-.4-.2-1.3-.1-2.7 0-4-.4 0-.8.1-1.2.1 0 .7-.2 1.4-.1 2.2-.3-.6-.6-1.3-.8-2.1l-2.1.3c.7 1.9 1.4 3.5 1.9 4.4-4 4.6-2.4 13.6-2 15.9-2.3 2.7-3.5 6.7-3.3 10.9.1 2 .5 3.7 1.2 5.1-.1.3-.3.7-.4 1-1.3 3.1-3.2 7.3-1 14.9 2.2 8.1 7.2 9.7 8.6 10 4 3.8 11.3 6.8 11.6 6.9.1.1.2.1.4.1s.5-.1.7-.3c.3-.3.4-.7.2-1.1 0-.1-2.2-6.2-1-11.5.4-1.8.8-3.5 1.3-5l.3 4.8c0 .4.3.8.7.9.4.1.8 0 1.1-.3 3.3-4 3.9-10.8 3.3-15.9-.5-4.3-1.9-7.8-3.7-9.5 2-2.5 4.7-7.2 6.4-10.6.9-2.7 1.4-5.7 1.4-5.7.2-1.8.3-3.5.2-5.1l-.1-1.3c-.2-1.5-.4-3-.8-4.4l-.3-1.2c-.1-.5-.4-1.1-.6-1.5l-1.2-.3c.9 2.6 1.1 5.3 1.3 8.1-.2.2-.1.5 0 .7.1 2.1 0 4.2-.5 6.3-.2.4-.5 1.1-1 2.1.3-3.8-.3-7.4-1.3-10.9l.1-.1c.3-.4 0-.8-.4-.9-.7-2-1-4.1-2-6.1-.6-.1-1.2-.2-1.7-.3m4.1 14.7-5.7 6.6c-.4-4.7 2-8.8 4.6-12.7.6 2 1 4 1.1 6.1zm-9.3 10.8c.1.1.2.1.3.2.1.1.3.1.4.1.4 1.6.8 3.2 1 4.8-1 .1-2.2.2-3.4.4v-.1c-.8-1.2-1.1-2.7-.7-4.1v-.1c.1-.1.2-.1.2-.2.7-.3 1.4-.6 2.2-1zm-.5-7c1.1 1.2 2.1 2.5 2.8 3.9.1.1.1.2.2.2-.8.5-1.6 1-2.4 1.4-1.4-1.3-1.1-3.6-.6-5.5zm2.2 6.1c.5-.3 1-.6 1.4-.9.8 1.5 1.4 3.1 1.5 4.8 0 .1.1.2.1.3-.4.6-.9 1.2-1.2 1.6h-.5c-.3-1.9-.7-3.8-1.3-5.8 0 .1 0 .1 0 0zm4.2-21.1c.4.7.8 1.4 1.1 2.2.1.2.2.3.4.4.1.4.3.7.4 1.1-2.8 4-5.3 8.2-5.4 13.1-.5-.8-1.2-1.5-1.8-2.2v-.3c-.4-2.5-.4-5.1.3-7.6.6-2.2 2-6.2 4.7-6.5.1-.1.2-.1.3-.2zm-9.4 10.1c1.1-5 3.8-9.3 7.9-12.3.3.4.6.7.8 1.1-5.4.9-6.4 9.2-6 14.1-.8-.8-1.7-1.6-2.5-2.4-.1-.2-.2-.3-.3-.4.1 0 .1 0 .1-.1zm-1 6.3c0-1.6.4-3.1.9-4.5.7.7 1.4 1.4 2.1 2-.6 2.4-1.1 5.3.5 7.2-.6.3-1.2.6-1.8.8-1.7-.7-1.7-4.2-1.7-5.5zm1.5 11.3c-.9.2-1.8.3-2.7.5-.6-1.1-.7-2.3-.2-3.5v-.2c.7-.3 1.3-.6 2-.9-.1 1.5.2 2.9.9 4.1zm-1.6-16.7c-.9 2.4-1.4 4.9-1.1 7.5.2 1.4.4 3.1 1.4 4.1-.4.2-.9.4-1.3.6 0-.1-.1-.1-.2-.2-.2-.1-.5-.2-.7-.4-3.8-2.5-1.5-10.2.1-13.5.6.6 1.2 1.3 1.8 1.9zm-2.3 17.4c-2.9.6-5.6 1.3-6.9 1.6 1.7-2.2 4-3.7 6.6-4.9-.3 1.2-.2 2.3.3 3.3zm-2.4-23c.5.8 1.1 1.6 1.7 2.4 0 .2.1.3.3.4l-.1.1c-1.3 2.6-2.8 7.2-2.3 10.9-2.6-4.5-2.4-9.5.4-13.8zm-1.5-3.6c.2.9.5 1.7.9 2.5-2.9 3.9-3.6 8.6-2 13-.2-.4-.5-.9-.6-1.3-.6-2.5-1.9-10.7 1.7-14.2zM56.8 168c1.4 2.4 3.3 4.4 5.8 5.7.1 0 .2.1.2.1-1 .5-2.1 1-3.1 1.5 0-.1-.1-.2-.2-.3-2-1.4-3.2-3.5-3.6-5.9.3-.3.6-.7.9-1.1zm-1.7 2.9c.6 2.1 1.9 3.8 3.7 5.1-.3.2-.6.5-1 .7-1.6-1.2-2.7-2.9-2.9-4.9v-.1c0-.3.1-.5.2-.8zm-.9 3.2c.5 1.3 1.4 2.5 2.6 3.4-.9.8-1.7 1.6-2.4 2.7-.2-.8-.4-1.8-.4-2.7-.1-1.1 0-2.2.2-3.4zm.4 10.4c.3-.7.6-1.4.8-2 .3-.1.8-.3 1.4-.5-2.1 4.7-3.3 9.5-3.5 14.6-1.3-6 .1-9.3 1.3-12.1zm-.1 16.1c-.3-6.6.9-12.9 3.7-18.9v-.1c.1 0 .2 0 .3-.1-1.3 5.7-2.4 11.6-2.6 17.5-.1 1.8.1 3.5.6 5-.7-.9-1.4-2-2-3.4zm7 6.4c-.2-.2-.4-.3-.6-.3h-.1c0-.1-.1-.2-.3-.3-7-3.3-2-19.5-.7-25.2.5-.1.9-.2 1.4-.3 0 .1 0 .2.1.3 3.5 7.7-1.9 19.4 1.6 27-.5-.4-1-.8-1.4-1.2zm4.3 3.2c-6.7-7 .5-20.9-3.4-29.6.9-.2 1.8-.3 2.7-.5 7.1 9.3-4.4 23.8 5.5 31.9.1.3.1.6.2.9-1.3-.7-3.2-1.6-5-2.7zm7.9-18.7c-.2.1-.3.3-.4.5 0 0-1.6 4.8-2.9 10.4-.6 2.6-.5 5.3-.1 7.6-7.2-7.7 2.1-21.1-3.8-30.1.9-.1 1.7-.3 2.5-.4 0 .1.1.2.2.3 3.3 3.1 4.9 7.3 4.5 11.7zm2 7.8-.2-3.4c.1-.1.2-.1.2-.3.8-2 1.3-4.1 1.4-6.1.2 3.7-.3 7.2-1.4 9.8zm-.5-6.4v-.6c0-.2-.1-.5-.3-.6.5-4.6-1.1-9-4.5-12.3 1.6-.2 2.8-.3 3.3-.2.3.2.5.5.8.9 1.6 4 1.9 8.4.7 12.8zm.3-18.9c-.3-1.6-.8-3.1-1.7-4.5v-.1l1.8-2.1c.8 1.1 1.3 2.3 1.6 3.6-.5 1-1.1 2.1-1.7 3.1zm3.1-5.6c-.2.3-.3.6-.5.9-.4-1.1-.9-2.1-1.6-3 .9-1 1.8-2.1 2.7-3.1 0 1.7-.2 3.4-.6 5.2z" fill="#000000" stroke-width="none" opacity="1"></path></g><g id="svga-group-glasses-single-move" transform="matrix(1,0,0,1,0,0)"><g id="svga-group-glasses-single" transform="matrix(1.0500002000000002,0,0,1.0500002000000002,-4.992277850196089,-4.480714982419599)"><path id="SvgjsPath10626" d="M80.93 77.47c-3.14-.04-7.54.66-10.02 3.49-2.48 2.83-2.93 6.38-2.43 10.27.51 3.9 2.23 6.63 5.67 8.8 3.44 2.18 9.06 2.07 10.68 1.47 1.62-.61 5.36-1.42 8.15-6.48 2.78-5.06 1.52-9.06.61-11.03s-4.77-6.41-12.66-6.52z" fill="url(#SvgjsLinearGradient10627)" opacity="1"></path><path id="SvgjsPath10630" d="M118.76 77.47c3.14-.04 7.54.66 10.02 3.49 2.48 2.83 2.93 6.38 2.43 10.27-.51 3.9-2.23 6.63-5.67 8.8-3.44 2.18-9.06 2.07-10.68 1.47-1.62-.61-5.36-1.42-8.15-6.48-2.78-5.06-1.52-9.06-.61-11.03.92-1.96 4.76-6.41 12.66-6.52z" fill="url(#SvgjsLinearGradient10631)" opacity="1"></path><path id="SvgjsPath10634" d="M135.47 79.4s-4.64-.16-7.84-1.44-7.12-1.76-11.27-1.36c-4.16.4-6.59 2.12-7.42 2.61-.96.57-3.15 1.59-5.01 1.32-2.03-.3-3.16-.34-3.16-.34h-1.85s-1.12.03-3.16.34c-1.86.28-4.06-.75-5.01-1.32-.83-.49-3.26-2.22-7.42-2.61-4.16-.4-8.08.08-11.27 1.36-3.2 1.28-7.84 1.44-7.84 1.44-.16.56.08 3.44.08 3.68 0 .24 2.24-.16 2.56 2.56.32 2.72.08 8.72 4 12.63 3.92 3.92 7.62 4.76 11.93 4.43 4.63-.36 8.22-3.23 10.54-6.75 2.32-3.52 3.67-7.81 3.67-9.33 0 0-1.78-.89-1.35-2.26.39-1.22 3.28-1.2 3.28-1.2h1.85s2.89-.02 3.28 1.2c.44 1.37-1.35 2.26-1.35 2.26 0 1.52 1.35 5.81 3.67 9.33 2.32 3.52 5.91 6.39 10.54 6.75 4.31.33 8.01-.51 11.93-4.43s3.68-9.91 4-12.63c.32-2.72 2.56-2.32 2.56-2.56-.02-.25.22-3.12.06-3.68zM90.12 97.87c-2.08 2-6.08 4.16-10.71 3.36-4.64-.8-8.4-3.28-9.83-7.68s-.88-8.96 1.36-11.67c2.24-2.72 5.68-4.08 10.47-3.92 2.32.08 3.92.24 6.96 2s5.44 4.16 5.76 8.32c.31 4.15-1.93 7.59-4.01 9.59zm39.99-4.32c-1.44 4.4-5.2 6.88-9.83 7.68-4.64.8-8.64-1.36-10.71-3.36-2.08-2-4.32-5.44-4-9.59.32-4.16 2.72-6.56 5.76-8.32 3.04-1.76 4.64-1.92 6.96-2 4.79-.17 8.24 1.2 10.47 3.92 2.23 2.71 2.79 7.27 1.35 11.67z" fill="#000000" stroke-width="none" opacity="1"></path></g></g></g></g></g><rect id="svga-credit-rect" width="200" height="15" x="0" y="185" fill="#ecf0f1" opacity="0.5" style="display: none;"></rect><text id="svga-credit-text" font-family="Avenir Next, Roboto, Helvetica, Arial, sans-serif" font-size="10px" text-anchor="start" font-weight="400" size="10px" anchor="start" weight="400" fill="#333333" x="33.40447998046875" y="182.60824704170227" style="display: none;"><tspan id="SvgjsTspan10410" dy="13" x="33.40447998046875">Created on AvatarMaker.com</tspan></text></g><defs id="SvgjsDefs10362"><linearGradient id="SvgjsLinearGradient10627" x1="81.4811" y1="77.4731" x2="81.4811" y2="101.8875" gradientUnits="userSpaceOnUse" class="svga-on-canvas-glasses-gradient-single-0-null"><stop id="SvgjsStop10628" stop-opacity="1" stop-color="#ffffff" offset="0.0708" ></stop><stop id="SvgjsStop10629" stop-opacity="0" stop-color="#ffffff" offset="1" ></stop></linearGradient><linearGradient id="SvgjsLinearGradient10631" x1="38.4811" y1="77.4731" x2="38.4811" y2="101.8875" gradientTransform="matrix(-1 0 0 1 156.6823 0)" gradientUnits="userSpaceOnUse" class="svga-on-canvas-glasses-gradient-single-1-null"><stop id="SvgjsStop10632" stop-opacity="1" stop-color="#ffffff" offset="0.0708" ></stop><stop id="SvgjsStop10633" stop-opacity="0" stop-color="#ffffff" offset="1" ></stop></linearGradient></defs></svg>